<mxfile host="65bd71144e">
    <diagram id="1d_0wMV2e9Ntkae8SgNv" name="Page-1">
        <mxGraphModel grid="1" gridSize="10" guides="1" tooltips="1" connect="1" arrows="1" page="1" fold="1" pageScale="1" pageWidth="827" pageHeight="1169" math="0" shadow="0">
            <root>
                <mxCell id="0"/>
                <mxCell id="1" parent="0"/>
                <mxCell id="2" value="Horary" style="shape=table;startSize=30;container=1;collapsible=1;childLayout=tableLayout;fixedRows=1;rowLines=0;fontStyle=1;align=center;resizeLast=1;" parent="1" vertex="1">
                    <mxGeometry x="24" y="465" width="180" height="190" as="geometry"/>
                </mxCell>
                <mxCell id="3" value="" style="shape=tableRow;horizontal=0;startSize=0;swimlaneHead=0;swimlaneBody=0;fillColor=none;collapsible=0;dropTarget=0;points=[[0,0.5],[1,0.5]];portConstraint=eastwest;top=0;left=0;right=0;bottom=1;" parent="2" vertex="1">
                    <mxGeometry y="30" width="180" height="30" as="geometry"/>
                </mxCell>
                <mxCell id="4" value="PK" style="shape=partialRectangle;connectable=0;fillColor=none;top=0;left=0;bottom=0;right=0;fontStyle=1;overflow=hidden;" parent="3" vertex="1">
                    <mxGeometry width="30" height="30" as="geometry">
                        <mxRectangle width="30" height="30" as="alternateBounds"/>
                    </mxGeometry>
                </mxCell>
                <mxCell id="5" value="id " style="shape=partialRectangle;connectable=0;fillColor=none;top=0;left=0;bottom=0;right=0;align=left;spacingLeft=6;fontStyle=5;overflow=hidden;" parent="3" vertex="1">
                    <mxGeometry x="30" width="150" height="30" as="geometry">
                        <mxRectangle width="150" height="30" as="alternateBounds"/>
                    </mxGeometry>
                </mxCell>
                <mxCell id="6" value="" style="shape=tableRow;horizontal=0;startSize=0;swimlaneHead=0;swimlaneBody=0;fillColor=none;collapsible=0;dropTarget=0;points=[[0,0.5],[1,0.5]];portConstraint=eastwest;top=0;left=0;right=0;bottom=0;" parent="2" vertex="1">
                    <mxGeometry y="60" width="180" height="30" as="geometry"/>
                </mxCell>
                <mxCell id="7" value="" style="shape=partialRectangle;connectable=0;fillColor=none;top=0;left=0;bottom=0;right=0;editable=1;overflow=hidden;" parent="6" vertex="1">
                    <mxGeometry width="30" height="30" as="geometry">
                        <mxRectangle width="30" height="30" as="alternateBounds"/>
                    </mxGeometry>
                </mxCell>
                <mxCell id="8" value="date" style="shape=partialRectangle;connectable=0;fillColor=none;top=0;left=0;bottom=0;right=0;align=left;spacingLeft=6;overflow=hidden;" parent="6" vertex="1">
                    <mxGeometry x="30" width="150" height="30" as="geometry">
                        <mxRectangle width="150" height="30" as="alternateBounds"/>
                    </mxGeometry>
                </mxCell>
                <mxCell id="9" value="" style="shape=tableRow;horizontal=0;startSize=0;swimlaneHead=0;swimlaneBody=0;fillColor=none;collapsible=0;dropTarget=0;points=[[0,0.5],[1,0.5]];portConstraint=eastwest;top=0;left=0;right=0;bottom=0;" parent="2" vertex="1">
                    <mxGeometry y="90" width="180" height="30" as="geometry"/>
                </mxCell>
                <mxCell id="10" value="" style="shape=partialRectangle;connectable=0;fillColor=none;top=0;left=0;bottom=0;right=0;editable=1;overflow=hidden;" parent="9" vertex="1">
                    <mxGeometry width="30" height="30" as="geometry">
                        <mxRectangle width="30" height="30" as="alternateBounds"/>
                    </mxGeometry>
                </mxCell>
                <mxCell id="11" value="hour" style="shape=partialRectangle;connectable=0;fillColor=none;top=0;left=0;bottom=0;right=0;align=left;spacingLeft=6;overflow=hidden;" parent="9" vertex="1">
                    <mxGeometry x="30" width="150" height="30" as="geometry">
                        <mxRectangle width="150" height="30" as="alternateBounds"/>
                    </mxGeometry>
                </mxCell>
                <mxCell id="12" value="" style="shape=tableRow;horizontal=0;startSize=0;swimlaneHead=0;swimlaneBody=0;fillColor=none;collapsible=0;dropTarget=0;points=[[0,0.5],[1,0.5]];portConstraint=eastwest;top=0;left=0;right=0;bottom=0;" parent="2" vertex="1">
                    <mxGeometry y="120" width="180" height="30" as="geometry"/>
                </mxCell>
                <mxCell id="13" value="" style="shape=partialRectangle;connectable=0;fillColor=none;top=0;left=0;bottom=0;right=0;editable=1;overflow=hidden;" parent="12" vertex="1">
                    <mxGeometry width="30" height="30" as="geometry">
                        <mxRectangle width="30" height="30" as="alternateBounds"/>
                    </mxGeometry>
                </mxCell>
                <mxCell id="14" value="specialty" style="shape=partialRectangle;connectable=0;fillColor=none;top=0;left=0;bottom=0;right=0;align=left;spacingLeft=6;overflow=hidden;" parent="12" vertex="1">
                    <mxGeometry x="30" width="150" height="30" as="geometry">
                        <mxRectangle width="150" height="30" as="alternateBounds"/>
                    </mxGeometry>
                </mxCell>
                <mxCell id="15" value="" style="shape=tableRow;horizontal=0;startSize=0;swimlaneHead=0;swimlaneBody=0;fillColor=none;collapsible=0;dropTarget=0;points=[[0,0.5],[1,0.5]];portConstraint=eastwest;top=0;left=0;right=0;bottom=0;" parent="2" vertex="1">
                    <mxGeometry y="150" width="180" height="40" as="geometry"/>
                </mxCell>
                <mxCell id="16" value="" style="shape=partialRectangle;connectable=0;fillColor=none;top=0;left=0;bottom=0;right=0;editable=1;overflow=hidden;" parent="15" vertex="1">
                    <mxGeometry width="30" height="40" as="geometry">
                        <mxRectangle width="30" height="40" as="alternateBounds"/>
                    </mxGeometry>
                </mxCell>
                <mxCell id="17" value="price" style="shape=partialRectangle;connectable=0;fillColor=none;top=0;left=0;bottom=0;right=0;align=left;spacingLeft=6;overflow=hidden;" parent="15" vertex="1">
                    <mxGeometry x="30" width="150" height="40" as="geometry">
                        <mxRectangle width="150" height="40" as="alternateBounds"/>
                    </mxGeometry>
                </mxCell>
                <mxCell id="18" value="" style="endArrow=none;html=1;rounded=0;" parent="1" edge="1">
                    <mxGeometry width="50" height="50" relative="1" as="geometry">
                        <mxPoint x="144" y="655" as="sourcePoint"/>
                        <mxPoint x="144" y="495" as="targetPoint"/>
                    </mxGeometry>
                </mxCell>
                <mxCell id="19" value="INT" style="text;html=1;resizable=0;autosize=1;align=center;verticalAlign=middle;points=[];fillColor=none;strokeColor=none;rounded=0;" parent="1" vertex="1">
                    <mxGeometry x="154" y="495" width="40" height="30" as="geometry"/>
                </mxCell>
                <mxCell id="20" value="INT" style="text;html=1;resizable=0;autosize=1;align=center;verticalAlign=middle;points=[];fillColor=none;strokeColor=none;rounded=0;" parent="1" vertex="1">
                    <mxGeometry x="154" y="615" width="40" height="30" as="geometry"/>
                </mxCell>
                <mxCell id="21" value="client" style="shape=table;startSize=30;container=1;collapsible=1;childLayout=tableLayout;fixedRows=1;rowLines=0;fontStyle=1;align=center;resizeLast=1;" parent="1" vertex="1">
                    <mxGeometry x="264" y="110" width="180" height="270" as="geometry"/>
                </mxCell>
                <mxCell id="22" value="" style="shape=tableRow;horizontal=0;startSize=0;swimlaneHead=0;swimlaneBody=0;fillColor=none;collapsible=0;dropTarget=0;points=[[0,0.5],[1,0.5]];portConstraint=eastwest;top=0;left=0;right=0;bottom=1;" parent="21" vertex="1">
                    <mxGeometry y="30" width="180" height="30" as="geometry"/>
                </mxCell>
                <mxCell id="23" value="PK" style="shape=partialRectangle;connectable=0;fillColor=none;top=0;left=0;bottom=0;right=0;fontStyle=1;overflow=hidden;" parent="22" vertex="1">
                    <mxGeometry width="30" height="30" as="geometry">
                        <mxRectangle width="30" height="30" as="alternateBounds"/>
                    </mxGeometry>
                </mxCell>
                <mxCell id="24" value="id " style="shape=partialRectangle;connectable=0;fillColor=none;top=0;left=0;bottom=0;right=0;align=left;spacingLeft=6;fontStyle=5;overflow=hidden;" parent="22" vertex="1">
                    <mxGeometry x="30" width="150" height="30" as="geometry">
                        <mxRectangle width="150" height="30" as="alternateBounds"/>
                    </mxGeometry>
                </mxCell>
                <mxCell id="25" value="" style="shape=tableRow;horizontal=0;startSize=0;swimlaneHead=0;swimlaneBody=0;fillColor=none;collapsible=0;dropTarget=0;points=[[0,0.5],[1,0.5]];portConstraint=eastwest;top=0;left=0;right=0;bottom=0;" parent="21" vertex="1">
                    <mxGeometry y="60" width="180" height="30" as="geometry"/>
                </mxCell>
                <mxCell id="26" value="" style="shape=partialRectangle;connectable=0;fillColor=none;top=0;left=0;bottom=0;right=0;editable=1;overflow=hidden;" parent="25" vertex="1">
                    <mxGeometry width="30" height="30" as="geometry">
                        <mxRectangle width="30" height="30" as="alternateBounds"/>
                    </mxGeometry>
                </mxCell>
                <mxCell id="27" value="full_name" style="shape=partialRectangle;connectable=0;fillColor=none;top=0;left=0;bottom=0;right=0;align=left;spacingLeft=6;overflow=hidden;" parent="25" vertex="1">
                    <mxGeometry x="30" width="150" height="30" as="geometry">
                        <mxRectangle width="150" height="30" as="alternateBounds"/>
                    </mxGeometry>
                </mxCell>
                <mxCell id="28" value="" style="shape=tableRow;horizontal=0;startSize=0;swimlaneHead=0;swimlaneBody=0;fillColor=none;collapsible=0;dropTarget=0;points=[[0,0.5],[1,0.5]];portConstraint=eastwest;top=0;left=0;right=0;bottom=0;" parent="21" vertex="1">
                    <mxGeometry y="90" width="180" height="30" as="geometry"/>
                </mxCell>
                <mxCell id="29" value="" style="shape=partialRectangle;connectable=0;fillColor=none;top=0;left=0;bottom=0;right=0;editable=1;overflow=hidden;" parent="28" vertex="1">
                    <mxGeometry width="30" height="30" as="geometry">
                        <mxRectangle width="30" height="30" as="alternateBounds"/>
                    </mxGeometry>
                </mxCell>
                <mxCell id="30" value="email" style="shape=partialRectangle;connectable=0;fillColor=none;top=0;left=0;bottom=0;right=0;align=left;spacingLeft=6;overflow=hidden;" parent="28" vertex="1">
                    <mxGeometry x="30" width="150" height="30" as="geometry">
                        <mxRectangle width="150" height="30" as="alternateBounds"/>
                    </mxGeometry>
                </mxCell>
                <mxCell id="31" value="" style="shape=tableRow;horizontal=0;startSize=0;swimlaneHead=0;swimlaneBody=0;fillColor=none;collapsible=0;dropTarget=0;points=[[0,0.5],[1,0.5]];portConstraint=eastwest;top=0;left=0;right=0;bottom=0;" parent="21" vertex="1">
                    <mxGeometry y="120" width="180" height="30" as="geometry"/>
                </mxCell>
                <mxCell id="32" value="" style="shape=partialRectangle;connectable=0;fillColor=none;top=0;left=0;bottom=0;right=0;editable=1;overflow=hidden;" parent="31" vertex="1">
                    <mxGeometry width="30" height="30" as="geometry">
                        <mxRectangle width="30" height="30" as="alternateBounds"/>
                    </mxGeometry>
                </mxCell>
                <mxCell id="33" value="password" style="shape=partialRectangle;connectable=0;fillColor=none;top=0;left=0;bottom=0;right=0;align=left;spacingLeft=6;overflow=hidden;" parent="31" vertex="1">
                    <mxGeometry x="30" width="150" height="30" as="geometry">
                        <mxRectangle width="150" height="30" as="alternateBounds"/>
                    </mxGeometry>
                </mxCell>
                <mxCell id="34" value="" style="shape=tableRow;horizontal=0;startSize=0;swimlaneHead=0;swimlaneBody=0;fillColor=none;collapsible=0;dropTarget=0;points=[[0,0.5],[1,0.5]];portConstraint=eastwest;top=0;left=0;right=0;bottom=0;" parent="21" vertex="1">
                    <mxGeometry y="150" width="180" height="40" as="geometry"/>
                </mxCell>
                <mxCell id="35" value="FK" style="shape=partialRectangle;connectable=0;fillColor=none;top=0;left=0;bottom=0;right=0;editable=1;overflow=hidden;fontStyle=1" parent="34" vertex="1">
                    <mxGeometry width="30" height="40" as="geometry">
                        <mxRectangle width="30" height="40" as="alternateBounds"/>
                    </mxGeometry>
                </mxCell>
                <mxCell id="36" value="professional_id" style="shape=partialRectangle;connectable=0;fillColor=none;top=0;left=0;bottom=0;right=0;align=left;spacingLeft=6;overflow=hidden;" parent="34" vertex="1">
                    <mxGeometry x="30" width="150" height="40" as="geometry">
                        <mxRectangle width="150" height="40" as="alternateBounds"/>
                    </mxGeometry>
                </mxCell>
                <mxCell id="37" value="" style="shape=tableRow;horizontal=0;startSize=0;swimlaneHead=0;swimlaneBody=0;fillColor=none;collapsible=0;dropTarget=0;points=[[0,0.5],[1,0.5]];portConstraint=eastwest;top=0;left=0;right=0;bottom=0;" parent="21" vertex="1">
                    <mxGeometry y="190" width="180" height="40" as="geometry"/>
                </mxCell>
                <mxCell id="38" value="FK" style="shape=partialRectangle;connectable=0;fillColor=none;top=0;left=0;bottom=0;right=0;editable=1;overflow=hidden;fontStyle=1" parent="37" vertex="1">
                    <mxGeometry width="30" height="40" as="geometry">
                        <mxRectangle width="30" height="40" as="alternateBounds"/>
                    </mxGeometry>
                </mxCell>
                <mxCell id="39" value="address_id" style="shape=partialRectangle;connectable=0;fillColor=none;top=0;left=0;bottom=0;right=0;align=left;spacingLeft=6;overflow=hidden;" parent="37" vertex="1">
                    <mxGeometry x="30" width="150" height="40" as="geometry">
                        <mxRectangle width="150" height="40" as="alternateBounds"/>
                    </mxGeometry>
                </mxCell>
                <mxCell id="40" value="" style="shape=tableRow;horizontal=0;startSize=0;swimlaneHead=0;swimlaneBody=0;fillColor=none;collapsible=0;dropTarget=0;points=[[0,0.5],[1,0.5]];portConstraint=eastwest;top=0;left=0;right=0;bottom=0;" parent="21" vertex="1">
                    <mxGeometry y="230" width="180" height="40" as="geometry"/>
                </mxCell>
                <mxCell id="41" value="FK" style="shape=partialRectangle;connectable=0;fillColor=none;top=0;left=0;bottom=0;right=0;editable=1;overflow=hidden;fontStyle=1" parent="40" vertex="1">
                    <mxGeometry width="30" height="40" as="geometry">
                        <mxRectangle width="30" height="40" as="alternateBounds"/>
                    </mxGeometry>
                </mxCell>
                <mxCell id="42" value="horary_id" style="shape=partialRectangle;connectable=0;fillColor=none;top=0;left=0;bottom=0;right=0;align=left;spacingLeft=6;overflow=hidden;" parent="40" vertex="1">
                    <mxGeometry x="30" width="150" height="40" as="geometry">
                        <mxRectangle width="150" height="40" as="alternateBounds"/>
                    </mxGeometry>
                </mxCell>
                <mxCell id="43" value="&lt;span style=&quot;color: rgb(0, 0, 0); font-family: Helvetica; font-size: 12px; font-style: normal; font-variant-ligatures: normal; font-variant-caps: normal; font-weight: 400; letter-spacing: normal; orphans: 2; text-align: center; text-indent: 0px; text-transform: none; widows: 2; word-spacing: 0px; -webkit-text-stroke-width: 0px; background-color: rgb(248, 249, 250); text-decoration-thickness: initial; text-decoration-style: initial; text-decoration-color: initial; float: none; display: inline !important;&quot;&gt;VARCHAR&lt;/span&gt;" style="text;whiteSpace=wrap;html=1;" parent="1" vertex="1">
                    <mxGeometry x="144" y="585" width="50" height="40" as="geometry"/>
                </mxCell>
                <mxCell id="44" value="&lt;span style=&quot;color: rgb(0, 0, 0); font-family: Helvetica; font-size: 12px; font-style: normal; font-variant-ligatures: normal; font-variant-caps: normal; font-weight: 400; letter-spacing: normal; orphans: 2; text-align: center; text-indent: 0px; text-transform: none; widows: 2; word-spacing: 0px; -webkit-text-stroke-width: 0px; background-color: rgb(248, 249, 250); text-decoration-thickness: initial; text-decoration-style: initial; text-decoration-color: initial; float: none; display: inline !important;&quot;&gt;HOUR&lt;/span&gt;" style="text;whiteSpace=wrap;html=1;" parent="1" vertex="1">
                    <mxGeometry x="154" y="555" width="50" height="40" as="geometry"/>
                </mxCell>
                <mxCell id="45" value="&lt;span style=&quot;color: rgb(0, 0, 0); font-family: Helvetica; font-size: 12px; font-style: normal; font-variant-ligatures: normal; font-variant-caps: normal; font-weight: 400; letter-spacing: normal; orphans: 2; text-align: center; text-indent: 0px; text-transform: none; widows: 2; word-spacing: 0px; -webkit-text-stroke-width: 0px; background-color: rgb(248, 249, 250); text-decoration-thickness: initial; text-decoration-style: initial; text-decoration-color: initial; float: none; display: inline !important;&quot;&gt;DATE&lt;/span&gt;" style="text;whiteSpace=wrap;html=1;" parent="1" vertex="1">
                    <mxGeometry x="154" y="525" width="50" height="40" as="geometry"/>
                </mxCell>
                <mxCell id="46" value="&lt;span style=&quot;color: rgb(0, 0, 0); font-family: Helvetica; font-size: 12px; font-style: normal; font-variant-ligatures: normal; font-variant-caps: normal; font-weight: 400; letter-spacing: normal; orphans: 2; text-align: center; text-indent: 0px; text-transform: none; widows: 2; word-spacing: 0px; -webkit-text-stroke-width: 0px; background-color: rgb(248, 249, 250); text-decoration-thickness: initial; text-decoration-style: initial; text-decoration-color: initial; float: none; display: inline !important;&quot;&gt;VARCHAR&lt;/span&gt;" style="text;whiteSpace=wrap;html=1;" parent="1" vertex="1">
                    <mxGeometry x="384" y="170" width="90" height="40" as="geometry"/>
                </mxCell>
                <mxCell id="47" value="&lt;span style=&quot;color: rgb(0, 0, 0); font-family: Helvetica; font-size: 12px; font-style: normal; font-variant-ligatures: normal; font-variant-caps: normal; font-weight: 400; letter-spacing: normal; orphans: 2; text-align: center; text-indent: 0px; text-transform: none; widows: 2; word-spacing: 0px; -webkit-text-stroke-width: 0px; background-color: rgb(248, 249, 250); text-decoration-thickness: initial; text-decoration-style: initial; text-decoration-color: initial; float: none; display: inline !important;&quot;&gt;VARCHAR&lt;/span&gt;" style="text;whiteSpace=wrap;html=1;" parent="1" vertex="1">
                    <mxGeometry x="384" y="200" width="90" height="40" as="geometry"/>
                </mxCell>
                <mxCell id="48" value="&lt;span style=&quot;color: rgb(0, 0, 0); font-family: Helvetica; font-size: 12px; font-style: normal; font-variant-ligatures: normal; font-variant-caps: normal; font-weight: 400; letter-spacing: normal; orphans: 2; text-align: center; text-indent: 0px; text-transform: none; widows: 2; word-spacing: 0px; -webkit-text-stroke-width: 0px; background-color: rgb(248, 249, 250); text-decoration-thickness: initial; text-decoration-style: initial; text-decoration-color: initial; float: none; display: inline !important;&quot;&gt;VARCHAR&lt;/span&gt;" style="text;whiteSpace=wrap;html=1;" parent="1" vertex="1">
                    <mxGeometry x="384" y="230" width="90" height="40" as="geometry"/>
                </mxCell>
                <mxCell id="49" value="&lt;span style=&quot;color: rgb(0, 0, 0); font-family: Helvetica; font-size: 12px; font-style: normal; font-variant-ligatures: normal; font-variant-caps: normal; font-weight: 400; letter-spacing: normal; orphans: 2; text-align: center; text-indent: 0px; text-transform: none; widows: 2; word-spacing: 0px; -webkit-text-stroke-width: 0px; background-color: rgb(248, 249, 250); text-decoration-thickness: initial; text-decoration-style: initial; text-decoration-color: initial; float: none; display: inline !important;&quot;&gt;VARCHAR&lt;/span&gt;" style="text;whiteSpace=wrap;html=1;" parent="1" vertex="1">
                    <mxGeometry x="384" y="270" width="90" height="40" as="geometry"/>
                </mxCell>
                <mxCell id="50" value="&lt;span style=&quot;color: rgb(0, 0, 0); font-family: Helvetica; font-size: 12px; font-style: normal; font-variant-ligatures: normal; font-variant-caps: normal; font-weight: 400; letter-spacing: normal; orphans: 2; text-align: center; text-indent: 0px; text-transform: none; widows: 2; word-spacing: 0px; -webkit-text-stroke-width: 0px; background-color: rgb(248, 249, 250); text-decoration-thickness: initial; text-decoration-style: initial; text-decoration-color: initial; float: none; display: inline !important;&quot;&gt;VARCHAR&lt;/span&gt;" style="text;whiteSpace=wrap;html=1;" parent="1" vertex="1">
                    <mxGeometry x="384" y="310" width="90" height="40" as="geometry"/>
                </mxCell>
                <mxCell id="51" value="&lt;span style=&quot;color: rgb(0, 0, 0); font-family: Helvetica; font-size: 12px; font-style: normal; font-variant-ligatures: normal; font-variant-caps: normal; font-weight: 400; letter-spacing: normal; orphans: 2; text-align: center; text-indent: 0px; text-transform: none; widows: 2; word-spacing: 0px; -webkit-text-stroke-width: 0px; background-color: rgb(248, 249, 250); text-decoration-thickness: initial; text-decoration-style: initial; text-decoration-color: initial; float: none; display: inline !important;&quot;&gt;VARCHAR&lt;/span&gt;" style="text;whiteSpace=wrap;html=1;" parent="1" vertex="1">
                    <mxGeometry x="384" y="350" width="90" height="30" as="geometry"/>
                </mxCell>
                <mxCell id="52" value="professional" style="shape=table;startSize=30;container=1;collapsible=1;childLayout=tableLayout;fixedRows=1;rowLines=0;fontStyle=1;align=center;resizeLast=1;" parent="1" vertex="1">
                    <mxGeometry x="264" y="510" width="200" height="270" as="geometry"/>
                </mxCell>
                <mxCell id="53" value="" style="shape=tableRow;horizontal=0;startSize=0;swimlaneHead=0;swimlaneBody=0;fillColor=none;collapsible=0;dropTarget=0;points=[[0,0.5],[1,0.5]];portConstraint=eastwest;top=0;left=0;right=0;bottom=1;" parent="52" vertex="1">
                    <mxGeometry y="30" width="200" height="30" as="geometry"/>
                </mxCell>
                <mxCell id="54" value="PK" style="shape=partialRectangle;connectable=0;fillColor=none;top=0;left=0;bottom=0;right=0;fontStyle=1;overflow=hidden;" parent="53" vertex="1">
                    <mxGeometry width="30" height="30" as="geometry">
                        <mxRectangle width="30" height="30" as="alternateBounds"/>
                    </mxGeometry>
                </mxCell>
                <mxCell id="55" value="id " style="shape=partialRectangle;connectable=0;fillColor=none;top=0;left=0;bottom=0;right=0;align=left;spacingLeft=6;fontStyle=5;overflow=hidden;" parent="53" vertex="1">
                    <mxGeometry x="30" width="170" height="30" as="geometry">
                        <mxRectangle width="170" height="30" as="alternateBounds"/>
                    </mxGeometry>
                </mxCell>
                <mxCell id="56" value="" style="shape=tableRow;horizontal=0;startSize=0;swimlaneHead=0;swimlaneBody=0;fillColor=none;collapsible=0;dropTarget=0;points=[[0,0.5],[1,0.5]];portConstraint=eastwest;top=0;left=0;right=0;bottom=0;" parent="52" vertex="1">
                    <mxGeometry y="60" width="200" height="30" as="geometry"/>
                </mxCell>
                <mxCell id="57" value="" style="shape=partialRectangle;connectable=0;fillColor=none;top=0;left=0;bottom=0;right=0;editable=1;overflow=hidden;" parent="56" vertex="1">
                    <mxGeometry width="30" height="30" as="geometry">
                        <mxRectangle width="30" height="30" as="alternateBounds"/>
                    </mxGeometry>
                </mxCell>
                <mxCell id="58" value="full_name" style="shape=partialRectangle;connectable=0;fillColor=none;top=0;left=0;bottom=0;right=0;align=left;spacingLeft=6;overflow=hidden;" parent="56" vertex="1">
                    <mxGeometry x="30" width="170" height="30" as="geometry">
                        <mxRectangle width="170" height="30" as="alternateBounds"/>
                    </mxGeometry>
                </mxCell>
                <mxCell id="59" value="" style="shape=tableRow;horizontal=0;startSize=0;swimlaneHead=0;swimlaneBody=0;fillColor=none;collapsible=0;dropTarget=0;points=[[0,0.5],[1,0.5]];portConstraint=eastwest;top=0;left=0;right=0;bottom=0;" parent="52" vertex="1">
                    <mxGeometry y="90" width="200" height="30" as="geometry"/>
                </mxCell>
                <mxCell id="60" value="" style="shape=partialRectangle;connectable=0;fillColor=none;top=0;left=0;bottom=0;right=0;editable=1;overflow=hidden;" parent="59" vertex="1">
                    <mxGeometry width="30" height="30" as="geometry">
                        <mxRectangle width="30" height="30" as="alternateBounds"/>
                    </mxGeometry>
                </mxCell>
                <mxCell id="61" value="email" style="shape=partialRectangle;connectable=0;fillColor=none;top=0;left=0;bottom=0;right=0;align=left;spacingLeft=6;overflow=hidden;" parent="59" vertex="1">
                    <mxGeometry x="30" width="170" height="30" as="geometry">
                        <mxRectangle width="170" height="30" as="alternateBounds"/>
                    </mxGeometry>
                </mxCell>
                <mxCell id="62" value="" style="shape=tableRow;horizontal=0;startSize=0;swimlaneHead=0;swimlaneBody=0;fillColor=none;collapsible=0;dropTarget=0;points=[[0,0.5],[1,0.5]];portConstraint=eastwest;top=0;left=0;right=0;bottom=0;" parent="52" vertex="1">
                    <mxGeometry y="120" width="200" height="30" as="geometry"/>
                </mxCell>
                <mxCell id="63" value="" style="shape=partialRectangle;connectable=0;fillColor=none;top=0;left=0;bottom=0;right=0;editable=1;overflow=hidden;" parent="62" vertex="1">
                    <mxGeometry width="30" height="30" as="geometry">
                        <mxRectangle width="30" height="30" as="alternateBounds"/>
                    </mxGeometry>
                </mxCell>
                <mxCell id="64" value="password" style="shape=partialRectangle;connectable=0;fillColor=none;top=0;left=0;bottom=0;right=0;align=left;spacingLeft=6;overflow=hidden;" parent="62" vertex="1">
                    <mxGeometry x="30" width="170" height="30" as="geometry">
                        <mxRectangle width="170" height="30" as="alternateBounds"/>
                    </mxGeometry>
                </mxCell>
                <mxCell id="65" value="" style="shape=tableRow;horizontal=0;startSize=0;swimlaneHead=0;swimlaneBody=0;fillColor=none;collapsible=0;dropTarget=0;points=[[0,0.5],[1,0.5]];portConstraint=eastwest;top=0;left=0;right=0;bottom=0;" parent="52" vertex="1">
                    <mxGeometry y="150" width="200" height="40" as="geometry"/>
                </mxCell>
                <mxCell id="66" value="FK" style="shape=partialRectangle;connectable=0;fillColor=none;top=0;left=0;bottom=0;right=0;editable=1;overflow=hidden;fontStyle=1" parent="65" vertex="1">
                    <mxGeometry width="30" height="40" as="geometry">
                        <mxRectangle width="30" height="40" as="alternateBounds"/>
                    </mxGeometry>
                </mxCell>
                <mxCell id="67" value="professional_id" style="shape=partialRectangle;connectable=0;fillColor=none;top=0;left=0;bottom=0;right=0;align=left;spacingLeft=6;overflow=hidden;" parent="65" vertex="1">
                    <mxGeometry x="30" width="170" height="40" as="geometry">
                        <mxRectangle width="170" height="40" as="alternateBounds"/>
                    </mxGeometry>
                </mxCell>
                <mxCell id="68" value="" style="shape=tableRow;horizontal=0;startSize=0;swimlaneHead=0;swimlaneBody=0;fillColor=none;collapsible=0;dropTarget=0;points=[[0,0.5],[1,0.5]];portConstraint=eastwest;top=0;left=0;right=0;bottom=0;" parent="52" vertex="1">
                    <mxGeometry y="190" width="200" height="40" as="geometry"/>
                </mxCell>
                <mxCell id="69" value="FK" style="shape=partialRectangle;connectable=0;fillColor=none;top=0;left=0;bottom=0;right=0;editable=1;overflow=hidden;fontStyle=1" parent="68" vertex="1">
                    <mxGeometry width="30" height="40" as="geometry">
                        <mxRectangle width="30" height="40" as="alternateBounds"/>
                    </mxGeometry>
                </mxCell>
                <mxCell id="70" value="address_id" style="shape=partialRectangle;connectable=0;fillColor=none;top=0;left=0;bottom=0;right=0;align=left;spacingLeft=6;overflow=hidden;" parent="68" vertex="1">
                    <mxGeometry x="30" width="170" height="40" as="geometry">
                        <mxRectangle width="170" height="40" as="alternateBounds"/>
                    </mxGeometry>
                </mxCell>
                <mxCell id="71" value="" style="shape=tableRow;horizontal=0;startSize=0;swimlaneHead=0;swimlaneBody=0;fillColor=none;collapsible=0;dropTarget=0;points=[[0,0.5],[1,0.5]];portConstraint=eastwest;top=0;left=0;right=0;bottom=0;" parent="52" vertex="1">
                    <mxGeometry y="230" width="200" height="40" as="geometry"/>
                </mxCell>
                <mxCell id="72" value="FK" style="shape=partialRectangle;connectable=0;fillColor=none;top=0;left=0;bottom=0;right=0;editable=1;overflow=hidden;fontStyle=1" parent="71" vertex="1">
                    <mxGeometry width="30" height="40" as="geometry">
                        <mxRectangle width="30" height="40" as="alternateBounds"/>
                    </mxGeometry>
                </mxCell>
                <mxCell id="73" value="horary_id" style="shape=partialRectangle;connectable=0;fillColor=none;top=0;left=0;bottom=0;right=0;align=left;spacingLeft=6;overflow=hidden;" parent="71" vertex="1">
                    <mxGeometry x="30" width="170" height="40" as="geometry">
                        <mxRectangle width="170" height="40" as="alternateBounds"/>
                    </mxGeometry>
                </mxCell>
                <mxCell id="74" value="admin" style="shape=table;startSize=30;container=1;collapsible=1;childLayout=tableLayout;fixedRows=1;rowLines=0;fontStyle=1;align=center;resizeLast=1;" parent="1" vertex="1">
                    <mxGeometry x="594" y="135" width="180" height="170" as="geometry"/>
                </mxCell>
                <mxCell id="75" value="" style="shape=tableRow;horizontal=0;startSize=0;swimlaneHead=0;swimlaneBody=0;fillColor=none;collapsible=0;dropTarget=0;points=[[0,0.5],[1,0.5]];portConstraint=eastwest;top=0;left=0;right=0;bottom=1;" parent="74" vertex="1">
                    <mxGeometry y="30" width="180" height="30" as="geometry"/>
                </mxCell>
                <mxCell id="76" value="PK" style="shape=partialRectangle;connectable=0;fillColor=none;top=0;left=0;bottom=0;right=0;fontStyle=1;overflow=hidden;" parent="75" vertex="1">
                    <mxGeometry width="30" height="30" as="geometry">
                        <mxRectangle width="30" height="30" as="alternateBounds"/>
                    </mxGeometry>
                </mxCell>
                <mxCell id="77" value="id " style="shape=partialRectangle;connectable=0;fillColor=none;top=0;left=0;bottom=0;right=0;align=left;spacingLeft=6;fontStyle=5;overflow=hidden;" parent="75" vertex="1">
                    <mxGeometry x="30" width="150" height="30" as="geometry">
                        <mxRectangle width="150" height="30" as="alternateBounds"/>
                    </mxGeometry>
                </mxCell>
                <mxCell id="78" value="" style="shape=tableRow;horizontal=0;startSize=0;swimlaneHead=0;swimlaneBody=0;fillColor=none;collapsible=0;dropTarget=0;points=[[0,0.5],[1,0.5]];portConstraint=eastwest;top=0;left=0;right=0;bottom=0;" parent="74" vertex="1">
                    <mxGeometry y="60" width="180" height="30" as="geometry"/>
                </mxCell>
                <mxCell id="79" value="" style="shape=partialRectangle;connectable=0;fillColor=none;top=0;left=0;bottom=0;right=0;editable=1;overflow=hidden;" parent="78" vertex="1">
                    <mxGeometry width="30" height="30" as="geometry">
                        <mxRectangle width="30" height="30" as="alternateBounds"/>
                    </mxGeometry>
                </mxCell>
                <mxCell id="80" value="full_name" style="shape=partialRectangle;connectable=0;fillColor=none;top=0;left=0;bottom=0;right=0;align=left;spacingLeft=6;overflow=hidden;" parent="78" vertex="1">
                    <mxGeometry x="30" width="150" height="30" as="geometry">
                        <mxRectangle width="150" height="30" as="alternateBounds"/>
                    </mxGeometry>
                </mxCell>
                <mxCell id="81" value="" style="shape=tableRow;horizontal=0;startSize=0;swimlaneHead=0;swimlaneBody=0;fillColor=none;collapsible=0;dropTarget=0;points=[[0,0.5],[1,0.5]];portConstraint=eastwest;top=0;left=0;right=0;bottom=0;" parent="74" vertex="1">
                    <mxGeometry y="90" width="180" height="30" as="geometry"/>
                </mxCell>
                <mxCell id="82" value="" style="shape=partialRectangle;connectable=0;fillColor=none;top=0;left=0;bottom=0;right=0;editable=1;overflow=hidden;" parent="81" vertex="1">
                    <mxGeometry width="30" height="30" as="geometry">
                        <mxRectangle width="30" height="30" as="alternateBounds"/>
                    </mxGeometry>
                </mxCell>
                <mxCell id="83" value="email" style="shape=partialRectangle;connectable=0;fillColor=none;top=0;left=0;bottom=0;right=0;align=left;spacingLeft=6;overflow=hidden;" parent="81" vertex="1">
                    <mxGeometry x="30" width="150" height="30" as="geometry">
                        <mxRectangle width="150" height="30" as="alternateBounds"/>
                    </mxGeometry>
                </mxCell>
                <mxCell id="84" value="" style="shape=tableRow;horizontal=0;startSize=0;swimlaneHead=0;swimlaneBody=0;fillColor=none;collapsible=0;dropTarget=0;points=[[0,0.5],[1,0.5]];portConstraint=eastwest;top=0;left=0;right=0;bottom=0;" parent="74" vertex="1">
                    <mxGeometry y="120" width="180" height="30" as="geometry"/>
                </mxCell>
                <mxCell id="85" value="" style="shape=partialRectangle;connectable=0;fillColor=none;top=0;left=0;bottom=0;right=0;editable=1;overflow=hidden;" parent="84" vertex="1">
                    <mxGeometry width="30" height="30" as="geometry">
                        <mxRectangle width="30" height="30" as="alternateBounds"/>
                    </mxGeometry>
                </mxCell>
                <mxCell id="86" value="password" style="shape=partialRectangle;connectable=0;fillColor=none;top=0;left=0;bottom=0;right=0;align=left;spacingLeft=6;overflow=hidden;" parent="84" vertex="1">
                    <mxGeometry x="30" width="150" height="30" as="geometry">
                        <mxRectangle width="150" height="30" as="alternateBounds"/>
                    </mxGeometry>
                </mxCell>
                <mxCell id="87" value="" style="shape=tableRow;horizontal=0;startSize=0;swimlaneHead=0;swimlaneBody=0;fillColor=none;collapsible=0;dropTarget=0;points=[[0,0.5],[1,0.5]];portConstraint=eastwest;top=0;left=0;right=0;bottom=0;" parent="74" vertex="1">
                    <mxGeometry y="150" width="180" height="20" as="geometry"/>
                </mxCell>
                <mxCell id="88" value="" style="shape=partialRectangle;connectable=0;fillColor=none;top=0;left=0;bottom=0;right=0;editable=1;overflow=hidden;fontStyle=1" parent="87" vertex="1">
                    <mxGeometry width="30" height="20" as="geometry">
                        <mxRectangle width="30" height="20" as="alternateBounds"/>
                    </mxGeometry>
                </mxCell>
                <mxCell id="89" value="" style="shape=partialRectangle;connectable=0;fillColor=none;top=0;left=0;bottom=0;right=0;align=left;spacingLeft=6;overflow=hidden;" parent="87" vertex="1">
                    <mxGeometry x="30" width="150" height="20" as="geometry">
                        <mxRectangle width="150" height="20" as="alternateBounds"/>
                    </mxGeometry>
                </mxCell>
                <mxCell id="90" value="&lt;span style=&quot;color: rgb(0, 0, 0); font-family: Helvetica; font-size: 12px; font-style: normal; font-variant-ligatures: normal; font-variant-caps: normal; font-weight: 400; letter-spacing: normal; orphans: 2; text-align: center; text-indent: 0px; text-transform: none; widows: 2; word-spacing: 0px; -webkit-text-stroke-width: 0px; background-color: rgb(248, 249, 250); text-decoration-thickness: initial; text-decoration-style: initial; text-decoration-color: initial; float: none; display: inline !important;&quot;&gt;VARCHAR&lt;/span&gt;" style="text;whiteSpace=wrap;html=1;" parent="1" vertex="1">
                    <mxGeometry x="704" y="260" width="90" height="40" as="geometry"/>
                </mxCell>
                <mxCell id="91" value="&lt;span style=&quot;color: rgb(0, 0, 0); font-family: Helvetica; font-size: 12px; font-style: normal; font-variant-ligatures: normal; font-variant-caps: normal; font-weight: 400; letter-spacing: normal; orphans: 2; text-align: center; text-indent: 0px; text-transform: none; widows: 2; word-spacing: 0px; -webkit-text-stroke-width: 0px; background-color: rgb(248, 249, 250); text-decoration-thickness: initial; text-decoration-style: initial; text-decoration-color: initial; float: none; display: inline !important;&quot;&gt;VARCHAR&lt;/span&gt;" style="text;whiteSpace=wrap;html=1;" parent="1" vertex="1">
                    <mxGeometry x="704" y="200" width="90" height="40" as="geometry"/>
                </mxCell>
                <mxCell id="92" value="&lt;span style=&quot;color: rgb(0, 0, 0); font-family: Helvetica; font-size: 12px; font-style: normal; font-variant-ligatures: normal; font-variant-caps: normal; font-weight: 400; letter-spacing: normal; orphans: 2; text-align: center; text-indent: 0px; text-transform: none; widows: 2; word-spacing: 0px; -webkit-text-stroke-width: 0px; background-color: rgb(248, 249, 250); text-decoration-thickness: initial; text-decoration-style: initial; text-decoration-color: initial; float: none; display: inline !important;&quot;&gt;VARCHAR&lt;/span&gt;" style="text;whiteSpace=wrap;html=1;" parent="1" vertex="1">
                    <mxGeometry x="704" y="230" width="90" height="40" as="geometry"/>
                </mxCell>
                <mxCell id="93" value="&lt;span style=&quot;color: rgb(0, 0, 0); font-family: Helvetica; font-size: 12px; font-style: normal; font-variant-ligatures: normal; font-variant-caps: normal; font-weight: 400; letter-spacing: normal; orphans: 2; text-align: center; text-indent: 0px; text-transform: none; widows: 2; word-spacing: 0px; -webkit-text-stroke-width: 0px; background-color: rgb(248, 249, 250); text-decoration-thickness: initial; text-decoration-style: initial; text-decoration-color: initial; float: none; display: inline !important;&quot;&gt;VARCHAR&lt;/span&gt;" style="text;whiteSpace=wrap;html=1;" parent="1" vertex="1">
                    <mxGeometry x="404" y="750" width="90" height="40" as="geometry"/>
                </mxCell>
                <mxCell id="94" value="&lt;span style=&quot;color: rgb(0, 0, 0); font-family: Helvetica; font-size: 12px; font-style: normal; font-variant-ligatures: normal; font-variant-caps: normal; font-weight: 400; letter-spacing: normal; orphans: 2; text-align: center; text-indent: 0px; text-transform: none; widows: 2; word-spacing: 0px; -webkit-text-stroke-width: 0px; background-color: rgb(248, 249, 250); text-decoration-thickness: initial; text-decoration-style: initial; text-decoration-color: initial; float: none; display: inline !important;&quot;&gt;VARCHAR&lt;/span&gt;" style="text;whiteSpace=wrap;html=1;" parent="1" vertex="1">
                    <mxGeometry x="404" y="710" width="90" height="40" as="geometry"/>
                </mxCell>
                <mxCell id="95" value="&lt;span style=&quot;color: rgb(0, 0, 0); font-family: Helvetica; font-size: 12px; font-style: normal; font-variant-ligatures: normal; font-variant-caps: normal; font-weight: 400; letter-spacing: normal; orphans: 2; text-align: center; text-indent: 0px; text-transform: none; widows: 2; word-spacing: 0px; -webkit-text-stroke-width: 0px; background-color: rgb(248, 249, 250); text-decoration-thickness: initial; text-decoration-style: initial; text-decoration-color: initial; float: none; display: inline !important;&quot;&gt;VARCHAR&lt;/span&gt;" style="text;whiteSpace=wrap;html=1;" parent="1" vertex="1">
                    <mxGeometry x="394" y="670" width="90" height="40" as="geometry"/>
                </mxCell>
                <mxCell id="96" value="&lt;span style=&quot;color: rgb(0, 0, 0); font-family: Helvetica; font-size: 12px; font-style: normal; font-variant-ligatures: normal; font-variant-caps: normal; font-weight: 400; letter-spacing: normal; orphans: 2; text-align: center; text-indent: 0px; text-transform: none; widows: 2; word-spacing: 0px; -webkit-text-stroke-width: 0px; background-color: rgb(248, 249, 250); text-decoration-thickness: initial; text-decoration-style: initial; text-decoration-color: initial; float: none; display: inline !important;&quot;&gt;VARCHAR&lt;/span&gt;" style="text;whiteSpace=wrap;html=1;" parent="1" vertex="1">
                    <mxGeometry x="394" y="640" width="90" height="40" as="geometry"/>
                </mxCell>
                <mxCell id="97" value="&lt;span style=&quot;color: rgb(0, 0, 0); font-family: Helvetica; font-size: 12px; font-style: normal; font-variant-ligatures: normal; font-variant-caps: normal; font-weight: 400; letter-spacing: normal; orphans: 2; text-align: center; text-indent: 0px; text-transform: none; widows: 2; word-spacing: 0px; -webkit-text-stroke-width: 0px; background-color: rgb(248, 249, 250); text-decoration-thickness: initial; text-decoration-style: initial; text-decoration-color: initial; float: none; display: inline !important;&quot;&gt;VARCHAR&lt;/span&gt;" style="text;whiteSpace=wrap;html=1;" parent="1" vertex="1">
                    <mxGeometry x="394" y="605" width="90" height="40" as="geometry"/>
                </mxCell>
                <mxCell id="98" value="&lt;span style=&quot;color: rgb(0, 0, 0); font-family: Helvetica; font-size: 12px; font-style: normal; font-variant-ligatures: normal; font-variant-caps: normal; font-weight: 400; letter-spacing: normal; orphans: 2; text-align: center; text-indent: 0px; text-transform: none; widows: 2; word-spacing: 0px; -webkit-text-stroke-width: 0px; background-color: rgb(248, 249, 250); text-decoration-thickness: initial; text-decoration-style: initial; text-decoration-color: initial; float: none; display: inline !important;&quot;&gt;VARCHAR&lt;/span&gt;" style="text;whiteSpace=wrap;html=1;" parent="1" vertex="1">
                    <mxGeometry x="394" y="570" width="90" height="40" as="geometry"/>
                </mxCell>
                <mxCell id="99" value="" style="endArrow=none;html=1;rounded=0;" parent="1" edge="1">
                    <mxGeometry width="50" height="50" relative="1" as="geometry">
                        <mxPoint x="394" y="780" as="sourcePoint"/>
                        <mxPoint x="394" y="540" as="targetPoint"/>
                    </mxGeometry>
                </mxCell>
                <mxCell id="100" value="" style="endArrow=none;html=1;rounded=0;exitX=0;exitY=1;exitDx=0;exitDy=0;entryX=0.672;entryY=0.067;entryDx=0;entryDy=0;entryPerimeter=0;" parent="1" source="51" target="22" edge="1">
                    <mxGeometry width="50" height="50" relative="1" as="geometry">
                        <mxPoint x="384" y="330" as="sourcePoint"/>
                        <mxPoint x="384" y="180" as="targetPoint"/>
                        <Array as="points">
                            <mxPoint x="384" y="260"/>
                            <mxPoint x="384" y="270"/>
                        </Array>
                    </mxGeometry>
                </mxCell>
                <mxCell id="101" value="" style="endArrow=none;html=1;rounded=0;" parent="1" edge="1">
                    <mxGeometry width="50" height="50" relative="1" as="geometry">
                        <mxPoint x="704" y="305" as="sourcePoint"/>
                        <mxPoint x="704" y="165" as="targetPoint"/>
                    </mxGeometry>
                </mxCell>
                <mxCell id="102" value="address" style="shape=table;startSize=30;container=1;collapsible=1;childLayout=tableLayout;fixedRows=1;rowLines=0;fontStyle=1;align=center;resizeLast=1;" parent="1" vertex="1">
                    <mxGeometry x="584" y="450" width="200" height="170" as="geometry"/>
                </mxCell>
                <mxCell id="103" value="" style="shape=tableRow;horizontal=0;startSize=0;swimlaneHead=0;swimlaneBody=0;fillColor=none;collapsible=0;dropTarget=0;points=[[0,0.5],[1,0.5]];portConstraint=eastwest;top=0;left=0;right=0;bottom=1;" parent="102" vertex="1">
                    <mxGeometry y="30" width="200" height="30" as="geometry"/>
                </mxCell>
                <mxCell id="104" value="PK" style="shape=partialRectangle;connectable=0;fillColor=none;top=0;left=0;bottom=0;right=0;fontStyle=1;overflow=hidden;" parent="103" vertex="1">
                    <mxGeometry width="30" height="30" as="geometry">
                        <mxRectangle width="30" height="30" as="alternateBounds"/>
                    </mxGeometry>
                </mxCell>
                <mxCell id="105" value="id " style="shape=partialRectangle;connectable=0;fillColor=none;top=0;left=0;bottom=0;right=0;align=left;spacingLeft=6;fontStyle=5;overflow=hidden;" parent="103" vertex="1">
                    <mxGeometry x="30" width="170" height="30" as="geometry">
                        <mxRectangle width="170" height="30" as="alternateBounds"/>
                    </mxGeometry>
                </mxCell>
                <mxCell id="106" value="" style="shape=tableRow;horizontal=0;startSize=0;swimlaneHead=0;swimlaneBody=0;fillColor=none;collapsible=0;dropTarget=0;points=[[0,0.5],[1,0.5]];portConstraint=eastwest;top=0;left=0;right=0;bottom=0;" parent="102" vertex="1">
                    <mxGeometry y="60" width="200" height="30" as="geometry"/>
                </mxCell>
                <mxCell id="107" value="" style="shape=partialRectangle;connectable=0;fillColor=none;top=0;left=0;bottom=0;right=0;editable=1;overflow=hidden;" parent="106" vertex="1">
                    <mxGeometry width="30" height="30" as="geometry">
                        <mxRectangle width="30" height="30" as="alternateBounds"/>
                    </mxGeometry>
                </mxCell>
                <mxCell id="108" value="cep" style="shape=partialRectangle;connectable=0;fillColor=none;top=0;left=0;bottom=0;right=0;align=left;spacingLeft=6;overflow=hidden;" parent="106" vertex="1">
                    <mxGeometry x="30" width="170" height="30" as="geometry">
                        <mxRectangle width="170" height="30" as="alternateBounds"/>
                    </mxGeometry>
                </mxCell>
                <mxCell id="109" value="" style="shape=tableRow;horizontal=0;startSize=0;swimlaneHead=0;swimlaneBody=0;fillColor=none;collapsible=0;dropTarget=0;points=[[0,0.5],[1,0.5]];portConstraint=eastwest;top=0;left=0;right=0;bottom=0;" parent="102" vertex="1">
                    <mxGeometry y="90" width="200" height="30" as="geometry"/>
                </mxCell>
                <mxCell id="110" value="" style="shape=partialRectangle;connectable=0;fillColor=none;top=0;left=0;bottom=0;right=0;editable=1;overflow=hidden;" parent="109" vertex="1">
                    <mxGeometry width="30" height="30" as="geometry">
                        <mxRectangle width="30" height="30" as="alternateBounds"/>
                    </mxGeometry>
                </mxCell>
                <mxCell id="111" value="number" style="shape=partialRectangle;connectable=0;fillColor=none;top=0;left=0;bottom=0;right=0;align=left;spacingLeft=6;overflow=hidden;" parent="109" vertex="1">
                    <mxGeometry x="30" width="170" height="30" as="geometry">
                        <mxRectangle width="170" height="30" as="alternateBounds"/>
                    </mxGeometry>
                </mxCell>
                <mxCell id="112" value="" style="shape=tableRow;horizontal=0;startSize=0;swimlaneHead=0;swimlaneBody=0;fillColor=none;collapsible=0;dropTarget=0;points=[[0,0.5],[1,0.5]];portConstraint=eastwest;top=0;left=0;right=0;bottom=0;" parent="102" vertex="1">
                    <mxGeometry y="120" width="200" height="30" as="geometry"/>
                </mxCell>
                <mxCell id="113" value="" style="shape=partialRectangle;connectable=0;fillColor=none;top=0;left=0;bottom=0;right=0;editable=1;overflow=hidden;" parent="112" vertex="1">
                    <mxGeometry width="30" height="30" as="geometry">
                        <mxRectangle width="30" height="30" as="alternateBounds"/>
                    </mxGeometry>
                </mxCell>
                <mxCell id="114" value="complement" style="shape=partialRectangle;connectable=0;fillColor=none;top=0;left=0;bottom=0;right=0;align=left;spacingLeft=6;overflow=hidden;" parent="112" vertex="1">
                    <mxGeometry x="30" width="170" height="30" as="geometry">
                        <mxRectangle width="170" height="30" as="alternateBounds"/>
                    </mxGeometry>
                </mxCell>
                <mxCell id="115" value="" style="shape=tableRow;horizontal=0;startSize=0;swimlaneHead=0;swimlaneBody=0;fillColor=none;collapsible=0;dropTarget=0;points=[[0,0.5],[1,0.5]];portConstraint=eastwest;top=0;left=0;right=0;bottom=0;" parent="102" vertex="1">
                    <mxGeometry y="150" width="200" height="20" as="geometry"/>
                </mxCell>
                <mxCell id="116" value="" style="shape=partialRectangle;connectable=0;fillColor=none;top=0;left=0;bottom=0;right=0;editable=1;overflow=hidden;fontStyle=1" parent="115" vertex="1">
                    <mxGeometry width="30" height="20" as="geometry">
                        <mxRectangle width="30" height="20" as="alternateBounds"/>
                    </mxGeometry>
                </mxCell>
                <mxCell id="117" value="" style="shape=partialRectangle;connectable=0;fillColor=none;top=0;left=0;bottom=0;right=0;align=left;spacingLeft=6;overflow=hidden;" parent="115" vertex="1">
                    <mxGeometry x="30" width="170" height="20" as="geometry">
                        <mxRectangle width="170" height="20" as="alternateBounds"/>
                    </mxGeometry>
                </mxCell>
                <mxCell id="118" value="" style="endArrow=none;html=1;rounded=0;entryX=0.65;entryY=0.067;entryDx=0;entryDy=0;entryPerimeter=0;" parent="1" target="103" edge="1">
                    <mxGeometry width="50" height="50" relative="1" as="geometry">
                        <mxPoint x="714" y="625" as="sourcePoint"/>
                        <mxPoint x="714" y="510" as="targetPoint"/>
                    </mxGeometry>
                </mxCell>
                <mxCell id="119" value="&lt;span style=&quot;color: rgb(0, 0, 0); font-family: Helvetica; font-size: 12px; font-style: normal; font-variant-ligatures: normal; font-variant-caps: normal; font-weight: 400; letter-spacing: normal; orphans: 2; text-align: center; text-indent: 0px; text-transform: none; widows: 2; word-spacing: 0px; -webkit-text-stroke-width: 0px; background-color: rgb(248, 249, 250); text-decoration-thickness: initial; text-decoration-style: initial; text-decoration-color: initial; float: none; display: inline !important;&quot;&gt;VARCHAR&lt;/span&gt;" style="text;whiteSpace=wrap;html=1;" parent="1" vertex="1">
                    <mxGeometry x="714" y="570" width="90" height="40" as="geometry"/>
                </mxCell>
                <mxCell id="120" value="&lt;span style=&quot;color: rgb(0, 0, 0); font-family: Helvetica; font-size: 12px; font-style: normal; font-variant-ligatures: normal; font-variant-caps: normal; font-weight: 400; letter-spacing: normal; orphans: 2; text-align: center; text-indent: 0px; text-transform: none; widows: 2; word-spacing: 0px; -webkit-text-stroke-width: 0px; background-color: rgb(248, 249, 250); text-decoration-thickness: initial; text-decoration-style: initial; text-decoration-color: initial; float: none; display: inline !important;&quot;&gt;VARCHAR&lt;/span&gt;" style="text;whiteSpace=wrap;html=1;" parent="1" vertex="1">
                    <mxGeometry x="714" y="540" width="90" height="40" as="geometry"/>
                </mxCell>
                <mxCell id="121" value="&lt;span style=&quot;color: rgb(0, 0, 0); font-family: Helvetica; font-size: 12px; font-style: normal; font-variant-ligatures: normal; font-variant-caps: normal; font-weight: 400; letter-spacing: normal; orphans: 2; text-align: center; text-indent: 0px; text-transform: none; widows: 2; word-spacing: 0px; -webkit-text-stroke-width: 0px; background-color: rgb(248, 249, 250); text-decoration-thickness: initial; text-decoration-style: initial; text-decoration-color: initial; float: none; display: inline !important;&quot;&gt;VARCHAR&lt;/span&gt;" style="text;whiteSpace=wrap;html=1;" parent="1" vertex="1">
                    <mxGeometry x="714" y="510" width="90" height="40" as="geometry"/>
                </mxCell>
                <mxCell id="122" value="INT" style="text;html=1;resizable=0;autosize=1;align=center;verticalAlign=middle;points=[];fillColor=none;strokeColor=none;rounded=0;" parent="1" vertex="1">
                    <mxGeometry x="398" y="140" width="40" height="30" as="geometry"/>
                </mxCell>
                <mxCell id="123" value="INT" style="text;html=1;resizable=0;autosize=1;align=center;verticalAlign=middle;points=[];fillColor=none;strokeColor=none;rounded=0;" parent="1" vertex="1">
                    <mxGeometry x="729" y="480" width="40" height="30" as="geometry"/>
                </mxCell>
                <mxCell id="124" value="INT" style="text;html=1;resizable=0;autosize=1;align=center;verticalAlign=middle;points=[];fillColor=none;strokeColor=none;rounded=0;" parent="1" vertex="1">
                    <mxGeometry x="409" y="540" width="40" height="30" as="geometry"/>
                </mxCell>
                <mxCell id="125" value="INT" style="text;html=1;resizable=0;autosize=1;align=center;verticalAlign=middle;points=[];fillColor=none;strokeColor=none;rounded=0;" parent="1" vertex="1">
                    <mxGeometry x="714" y="170" width="40" height="30" as="geometry"/>
                </mxCell>
                <mxCell id="126" value="" style="endArrow=open;endFill=1;endSize=12;html=1;rounded=0;exitX=0.461;exitY=1.05;exitDx=0;exitDy=0;exitPerimeter=0;entryX=0.415;entryY=-0.007;entryDx=0;entryDy=0;entryPerimeter=0;" parent="1" source="40" target="52" edge="1">
                    <mxGeometry width="160" relative="1" as="geometry">
                        <mxPoint x="274" y="450" as="sourcePoint"/>
                        <mxPoint x="434" y="450" as="targetPoint"/>
                    </mxGeometry>
                </mxCell>
                <mxCell id="127" value="" style="endArrow=open;endFill=1;endSize=12;html=1;rounded=0;exitX=0.105;exitY=-0.018;exitDx=0;exitDy=0;exitPerimeter=0;" parent="1" source="102" edge="1">
                    <mxGeometry width="160" relative="1" as="geometry">
                        <mxPoint x="524" y="323.89" as="sourcePoint"/>
                        <mxPoint x="444" y="350" as="targetPoint"/>
                    </mxGeometry>
                </mxCell>
                <mxCell id="128" value="" style="endArrow=open;endFill=1;endSize=12;html=1;rounded=0;exitX=0;exitY=0.5;exitDx=0;exitDy=0;entryX=1;entryY=0.5;entryDx=0;entryDy=0;" parent="1" source="109" target="53" edge="1">
                    <mxGeometry width="160" relative="1" as="geometry">
                        <mxPoint x="534" y="518.89" as="sourcePoint"/>
                        <mxPoint x="534.02" y="644.9999999999999" as="targetPoint"/>
                        <Array as="points">
                            <mxPoint x="524" y="555"/>
                            <mxPoint x="504" y="555"/>
                        </Array>
                    </mxGeometry>
                </mxCell>
                <mxCell id="129" value="" style="endArrow=open;endFill=1;endSize=12;html=1;rounded=0;exitX=1.067;exitY=0.5;exitDx=0;exitDy=0;exitPerimeter=0;entryX=0.415;entryY=-0.007;entryDx=0;entryDy=0;entryPerimeter=0;" parent="1" source="131" edge="1">
                    <mxGeometry width="160" relative="1" as="geometry">
                        <mxPoint x="144.00000000000003" y="338.89" as="sourcePoint"/>
                        <mxPoint x="144.02" y="464.9999999999999" as="targetPoint"/>
                    </mxGeometry>
                </mxCell>
                <mxCell id="130" value="N" style="text;html=1;resizable=0;autosize=1;align=center;verticalAlign=middle;points=[];fillColor=none;strokeColor=none;rounded=0;" parent="1" vertex="1">
                    <mxGeometry x="134" y="420" width="30" height="30" as="geometry"/>
                </mxCell>
                <mxCell id="131" value="1" style="text;html=1;resizable=0;autosize=1;align=center;verticalAlign=middle;points=[];fillColor=none;strokeColor=none;rounded=0;" parent="1" vertex="1">
                    <mxGeometry x="234" y="315" width="30" height="30" as="geometry"/>
                </mxCell>
                <mxCell id="132" value="1" style="text;html=1;resizable=0;autosize=1;align=center;verticalAlign=middle;points=[];fillColor=none;strokeColor=none;rounded=0;" parent="1" vertex="1">
                    <mxGeometry x="554" y="530" width="30" height="30" as="geometry"/>
                </mxCell>
                <mxCell id="133" value="1" style="text;html=1;resizable=0;autosize=1;align=center;verticalAlign=middle;points=[];fillColor=none;strokeColor=none;rounded=0;" parent="1" vertex="1">
                    <mxGeometry x="324" y="470" width="30" height="30" as="geometry"/>
                </mxCell>
                <mxCell id="134" value="1" style="text;html=1;resizable=0;autosize=1;align=center;verticalAlign=middle;points=[];fillColor=none;strokeColor=none;rounded=0;" parent="1" vertex="1">
                    <mxGeometry x="324" y="380" width="30" height="30" as="geometry"/>
                </mxCell>
                <mxCell id="135" value="1" style="text;html=1;resizable=0;autosize=1;align=center;verticalAlign=middle;points=[];fillColor=none;strokeColor=none;rounded=0;" parent="1" vertex="1">
                    <mxGeometry x="474" y="530" width="30" height="30" as="geometry"/>
                </mxCell>
                <mxCell id="136" value="1" style="text;html=1;resizable=0;autosize=1;align=center;verticalAlign=middle;points=[];fillColor=none;strokeColor=none;rounded=0;" parent="1" vertex="1">
                    <mxGeometry x="584" y="420" width="30" height="30" as="geometry"/>
                </mxCell>
                <mxCell id="137" value="1" style="text;html=1;resizable=0;autosize=1;align=center;verticalAlign=middle;points=[];fillColor=none;strokeColor=none;rounded=0;" parent="1" vertex="1">
                    <mxGeometry x="438" y="330" width="30" height="30" as="geometry"/>
                </mxCell>
                <mxCell id="138" value="ASSOCIAÇÕES" style="text;html=1;resizable=0;autosize=1;align=center;verticalAlign=middle;points=[];fillColor=none;strokeColor=none;rounded=0;fontStyle=1;fontSize=30;fontColor=#000000;labelBackgroundColor=#FFFFFF;" parent="1" vertex="1">
                    <mxGeometry x="280" y="20" width="240" height="40" as="geometry"/>
                </mxCell>
                <mxCell id="139" value="cria 1°" style="text;whiteSpace=wrap;html=1;fontSize=20;" parent="1" vertex="1">
                    <mxGeometry x="654" y="100" width="90" height="50" as="geometry"/>
                </mxCell>
                <mxCell id="140" value="cria 2°" style="text;whiteSpace=wrap;html=1;fontSize=20;" parent="1" vertex="1">
                    <mxGeometry x="654" y="420" width="90" height="50" as="geometry"/>
                </mxCell>
                <mxCell id="141" value="cria 3°" style="text;whiteSpace=wrap;html=1;fontSize=20;" parent="1" vertex="1">
                    <mxGeometry x="364" y="480" width="90" height="50" as="geometry"/>
                </mxCell>
                <mxCell id="142" value="cria 4°" style="text;whiteSpace=wrap;html=1;fontSize=20;" parent="1" vertex="1">
                    <mxGeometry x="264" y="80" width="90" height="50" as="geometry"/>
                </mxCell>
                <mxCell id="143" value="cria 5°" style="text;whiteSpace=wrap;html=1;fontSize=20;" parent="1" vertex="1">
                    <mxGeometry x="144" y="250" width="90" height="50" as="geometry"/>
                </mxCell>
                <mxCell id="144" value="especialidades" style="shape=table;startSize=30;container=1;collapsible=1;childLayout=tableLayout;fixedRows=1;rowLines=0;fontStyle=1;align=center;resizeLast=1;" parent="1" vertex="1">
                    <mxGeometry x="569" y="670" width="200" height="120" as="geometry"/>
                </mxCell>
                <mxCell id="145" value="" style="shape=tableRow;horizontal=0;startSize=0;swimlaneHead=0;swimlaneBody=0;fillColor=none;collapsible=0;dropTarget=0;points=[[0,0.5],[1,0.5]];portConstraint=eastwest;top=0;left=0;right=0;bottom=1;" parent="144" vertex="1">
                    <mxGeometry y="30" width="200" height="30" as="geometry"/>
                </mxCell>
                <mxCell id="146" value="PK" style="shape=partialRectangle;connectable=0;fillColor=none;top=0;left=0;bottom=0;right=0;fontStyle=1;overflow=hidden;" parent="145" vertex="1">
                    <mxGeometry width="30" height="30" as="geometry">
                        <mxRectangle width="30" height="30" as="alternateBounds"/>
                    </mxGeometry>
                </mxCell>
                <mxCell id="147" value="id " style="shape=partialRectangle;connectable=0;fillColor=none;top=0;left=0;bottom=0;right=0;align=left;spacingLeft=6;fontStyle=5;overflow=hidden;" parent="145" vertex="1">
                    <mxGeometry x="30" width="170" height="30" as="geometry">
                        <mxRectangle width="170" height="30" as="alternateBounds"/>
                    </mxGeometry>
                </mxCell>
                <mxCell id="148" value="" style="shape=tableRow;horizontal=0;startSize=0;swimlaneHead=0;swimlaneBody=0;fillColor=none;collapsible=0;dropTarget=0;points=[[0,0.5],[1,0.5]];portConstraint=eastwest;top=0;left=0;right=0;bottom=0;" parent="144" vertex="1">
                    <mxGeometry y="60" width="200" height="30" as="geometry"/>
                </mxCell>
                <mxCell id="149" value="" style="shape=partialRectangle;connectable=0;fillColor=none;top=0;left=0;bottom=0;right=0;editable=1;overflow=hidden;" parent="148" vertex="1">
                    <mxGeometry width="30" height="30" as="geometry">
                        <mxRectangle width="30" height="30" as="alternateBounds"/>
                    </mxGeometry>
                </mxCell>
                <mxCell id="150" value="especialidade" style="shape=partialRectangle;connectable=0;fillColor=none;top=0;left=0;bottom=0;right=0;align=left;spacingLeft=6;overflow=hidden;" parent="148" vertex="1">
                    <mxGeometry x="30" width="170" height="30" as="geometry">
                        <mxRectangle width="170" height="30" as="alternateBounds"/>
                    </mxGeometry>
                </mxCell>
                <mxCell id="151" value="" style="shape=tableRow;horizontal=0;startSize=0;swimlaneHead=0;swimlaneBody=0;fillColor=none;collapsible=0;dropTarget=0;points=[[0,0.5],[1,0.5]];portConstraint=eastwest;top=0;left=0;right=0;bottom=0;" parent="144" vertex="1">
                    <mxGeometry y="90" width="200" height="30" as="geometry"/>
                </mxCell>
                <mxCell id="152" value="" style="shape=partialRectangle;connectable=0;fillColor=none;top=0;left=0;bottom=0;right=0;editable=1;overflow=hidden;" parent="151" vertex="1">
                    <mxGeometry width="30" height="30" as="geometry">
                        <mxRectangle width="30" height="30" as="alternateBounds"/>
                    </mxGeometry>
                </mxCell>
                <mxCell id="153" value="preço" style="shape=partialRectangle;connectable=0;fillColor=none;top=0;left=0;bottom=0;right=0;align=left;spacingLeft=6;overflow=hidden;" parent="151" vertex="1">
                    <mxGeometry x="30" width="170" height="30" as="geometry">
                        <mxRectangle width="170" height="30" as="alternateBounds"/>
                    </mxGeometry>
                </mxCell>
                <mxCell id="154" value="&lt;span style=&quot;color: rgb(0, 0, 0); font-family: Helvetica; font-size: 12px; font-style: normal; font-variant-ligatures: normal; font-variant-caps: normal; font-weight: 400; letter-spacing: normal; orphans: 2; text-align: center; text-indent: 0px; text-transform: none; widows: 2; word-spacing: 0px; -webkit-text-stroke-width: 0px; background-color: rgb(248, 249, 250); text-decoration-thickness: initial; text-decoration-style: initial; text-decoration-color: initial; float: none; display: inline !important;&quot;&gt;number&lt;/span&gt;" style="text;whiteSpace=wrap;html=1;" parent="1" vertex="1">
                    <mxGeometry x="699" y="765" width="90" height="40" as="geometry"/>
                </mxCell>
                <mxCell id="155" value="&lt;span style=&quot;color: rgb(0, 0, 0); font-family: Helvetica; font-size: 12px; font-style: normal; font-variant-ligatures: normal; font-variant-caps: normal; font-weight: 400; letter-spacing: normal; orphans: 2; text-align: center; text-indent: 0px; text-transform: none; widows: 2; word-spacing: 0px; -webkit-text-stroke-width: 0px; background-color: rgb(248, 249, 250); text-decoration-thickness: initial; text-decoration-style: initial; text-decoration-color: initial; float: none; display: inline !important;&quot;&gt;VARCHAR&lt;/span&gt;" style="text;whiteSpace=wrap;html=1;" parent="1" vertex="1">
                    <mxGeometry x="699" y="730" width="90" height="40" as="geometry"/>
                </mxCell>
                <mxCell id="156" value="" style="endArrow=none;html=1;rounded=0;" parent="1" edge="1">
                    <mxGeometry width="50" height="50" relative="1" as="geometry">
                        <mxPoint x="699" y="790" as="sourcePoint"/>
                        <mxPoint x="699" y="700" as="targetPoint"/>
                    </mxGeometry>
                </mxCell>
                <mxCell id="157" value="INT" style="text;html=1;resizable=0;autosize=1;align=center;verticalAlign=middle;points=[];fillColor=none;strokeColor=none;rounded=0;" parent="1" vertex="1">
                    <mxGeometry x="714" y="700" width="40" height="30" as="geometry"/>
                </mxCell>
                <mxCell id="158" value="" style="endArrow=open;endFill=1;endSize=12;html=1;rounded=0;entryX=1;entryY=0.5;entryDx=0;entryDy=0;" parent="1" edge="1">
                    <mxGeometry width="160" relative="1" as="geometry">
                        <mxPoint x="569" y="720" as="sourcePoint"/>
                        <mxPoint x="469" y="720" as="targetPoint"/>
                        <Array as="points">
                            <mxPoint x="509" y="720"/>
                            <mxPoint x="489" y="720"/>
                        </Array>
                    </mxGeometry>
                </mxCell>
                <mxCell id="159" value="1" style="text;html=1;resizable=0;autosize=1;align=center;verticalAlign=middle;points=[];fillColor=none;strokeColor=none;rounded=0;" parent="1" vertex="1">
                    <mxGeometry x="468" y="690" width="30" height="30" as="geometry"/>
                </mxCell>
                <mxCell id="160" value="N" style="text;html=1;resizable=0;autosize=1;align=center;verticalAlign=middle;points=[];fillColor=none;strokeColor=none;rounded=0;" parent="1" vertex="1">
                    <mxGeometry x="534" y="690" width="30" height="30" as="geometry"/>
                </mxCell>
            </root>
        </mxGraphModel>
    </diagram>
    <diagram name="Page-2" id="1vlwt8_S9bD8Fuo7mRMz">
        <mxGraphModel dx="877" dy="605" grid="1" gridSize="10" guides="1" tooltips="1" connect="1" arrows="1" fold="1" page="1" pageScale="1" pageWidth="827" pageHeight="1169" math="0" shadow="0">
            <root>
                <mxCell id="0"/>
                <mxCell id="1" parent="0"/>
                <mxCell id="Tx11LzMW8MxVFHNYAhf--1" value="&lt;b style=&quot;background-color: rgb(255, 255, 255); font-size: 30px;&quot;&gt;&lt;font color=&quot;#000000&quot; style=&quot;font-size: 30px;&quot;&gt;TELAS - CRUD&lt;/font&gt;&lt;/b&gt;" style="text;html=1;align=center;verticalAlign=middle;resizable=0;points=[];autosize=1;strokeColor=none;fillColor=none;fontSize=30;" parent="1" vertex="1">
                    <mxGeometry x="275" y="10" width="230" height="40" as="geometry"/>
                </mxCell>
                <mxCell id="Tx11LzMW8MxVFHNYAhf--6" value="" style="endArrow=open;endFill=1;endSize=12;html=1;rounded=0;fontSize=20;" parent="1" edge="1">
                    <mxGeometry width="160" relative="1" as="geometry">
                        <mxPoint x="84.5" y="120" as="sourcePoint"/>
                        <mxPoint x="84.5" y="210" as="targetPoint"/>
                    </mxGeometry>
                </mxCell>
                <mxCell id="Tx11LzMW8MxVFHNYAhf--8" value="" style="rounded=1;whiteSpace=wrap;html=1;fontSize=20;" parent="1" vertex="1">
                    <mxGeometry x="25" y="80" width="120" height="40" as="geometry"/>
                </mxCell>
                <mxCell id="Tx11LzMW8MxVFHNYAhf--4" value="CADASTRO" style="text;html=1;align=center;verticalAlign=middle;resizable=0;points=[];autosize=1;strokeColor=none;fillColor=none;fontSize=20;" parent="1" vertex="1">
                    <mxGeometry x="20" y="80" width="130" height="40" as="geometry"/>
                </mxCell>
                <mxCell id="Tx11LzMW8MxVFHNYAhf--9" value="POST" style="text;html=1;align=center;verticalAlign=middle;resizable=0;points=[];autosize=1;strokeColor=none;fillColor=none;fontSize=20;" parent="1" vertex="1">
                    <mxGeometry x="45" y="200" width="80" height="40" as="geometry"/>
                </mxCell>
                <mxCell id="Tx11LzMW8MxVFHNYAhf--11" value="" style="rounded=0;whiteSpace=wrap;html=1;fontSize=20;dashed=1;" parent="1" vertex="1">
                    <mxGeometry x="20" y="230" width="550" height="135" as="geometry"/>
                </mxCell>
                <mxCell id="Tx11LzMW8MxVFHNYAhf--10" value="&lt;span data-meta=&quot;&lt;--(miro-data-v1)tl2kroutqq+gnq+gn111oZynrqBnXZ2qnK2fhJ9ddV2wk6WRim+ynG+AhHhdZ12fnK+cXXW2XaqdpaCer65ddZa2XbKkn6Kgr3+cr5xddbZdpa6qqV11tl2upLWgXXW2XbKkn6+jXXVvb3FpbW1rcWxxcm9xcW9zdGddo6CkoqOvXXVza7hnXa2qr5yvpKqpXXW2Xa2qr5yvpKqpXXVruGddq6qupK+kqqlddbZds111a2ddtF11a7hnXa6enKegXXW2Xa6enKegXXVraXNwcmxvbXNwcmxvbXNwcrhnXa+gs69ddV13q3lsaFuxnKekn5ytW6quW56cqKuqrndqq3l3q3ltW2hbfpyfnK6vrZxbqluwrrD+3K2kqlupqludnKmeqlufoFufnJ+qrltjarCuoK2uZHdqq3l3q3luW2hbkaCtpKGknpytW66gW6CurqBbsK6w/tytpKpbpf7cW6CzpK6voFupqluenK6qW5+gW6+grVuqW56cqKuqW6ConKSnW6X+3Fugs6Sur6Cpr6BbqapbnZypnqp3aqt5XWddrq+0p6BddV22l12ur5dddWxvZ5ddnZ6XXXVobGeXXZ2ql111bGeXXZ2unpdddWtnl12vnJdddZddp5ddZ5ddr56XXXVscmxrcWxzZ5ddr66el111bGeXXaGhqZdddWxrZ5ddq5dddWtnl12dl111a2eXXbCXXXVrZ5ddpJdddWtnl12ul111a2eXXaGyl111bGeXXZ2tnpdddWhsZ5ddna2ql111bGeXXZ2tspdddWtnl12dra6XXXVtZ5ddo6eXXXWXXZdduF24Z12vtKugXXVdr6Czr124Z12vtKugXXVsb7iYZ12uo6Shr111tl2zXXVvbXRpb3RvbHNvbHRrb3RzZ120XXVsc2xpbG90bXJzcm9wbHF0Z12vqqagqaS1oK2En3+gnl11XW5vcHNycW9wbW9ucm9vcW1za3FduGddqKCvnF11tri4Z12xoK2upKqpXXVtZ12jqq6vXXVdqKStqmmeqqhduA==(/miro-data-v1)--&gt;&lt;--(miro-data)wrZdwqTCrsKLwq3CqsKvwqDCnsKvwqDCn111wqHCnMKnwq7CoGddwp3CqsKcwq3Cn8KEwp9ddV3CsMKTwqXCkcKKb8KywpxvwoDChHhdZ13Cn8Kcwq/CnF11wrZdwqrCncKlwqDCnsKvwq5ddcKWwrZdwrLCpMKfwqLCoMKvf8Kcwq/CnF11wrZdwqXCrsKqwqlddcK2XcKuwqTCtcKgXXXCtl3CssKkwp/Cr8KjXXVvb3FpbW1rcWxxcm9xcW9zdGddwqPCoMKkwqLCo8KvXXVza8K4Z13CrcKqwq/CnMKvwqTCqsKpXXXCtl3CrcKqwq/CnMKvwqTCqsKpXXVrwrhnXcKrwqrCrsKkwq/CpMKqwqlddcK2XcKzXXVrZ13CtF11a8K4Z13CrsKewpzCp8KgXXXCtl3CrsKewpzCp8KgXXVraXNwcmxvbXNwcmxvbXNwcsK4Z13Cr8KgwrPCr111XXfCq3lsaFvCscKcwqfCpMKfwpzCrVvCqsKuW8KewpzCqMKrwqrCrndqwqt5d8KreW1baFt+wpzCn8Kcwq7Cr8KtwpxbwqpbwrDCrsKwxJzCrcKkwqpbwqnCqlvCncKcwqnCnsKqW8KfwqBbwp/CnMKfwqrCrltjasKwwq7CoMKtwq5kd2rCq3l3wqt5bltoW8KRwqDCrcKkwqHCpMKewpzCrVvCrsKgW8Kgwq7CrsKgW8Kwwq7CsMScwq3CpMKqW8KlxJxbwqDCs8Kkwq7Cr8KgW8Kpwqpbwp7CnMKuwqpbwp/CoFvCr8Kgwq1bwqpbwp7CnMKowqvCqlvCoMKowpzCpMKnW8KlxJxbwqDCs8Kkwq7Cr8KgwqnCr8KgW8Kpwqpbwp3CnMKpwp7Cqndqwqt5XWddwq7Cr8K0wqfCoF11XcK2wpddwq7Cr8KXXXVsb2fCl13CncKewpdddWhsZ8KXXcKdwqrCl111bGfCl13CncKuwp7Cl111a2fCl13Cr8KcwpdddcKXXcKnwpddZ8KXXcKvwp7Cl111bHJsa3Fsc2fCl13Cr8Kuwp7Cl111bGfCl13CocKhwqnCl111bGtnwpddwqvCl111a2fCl13CncKXXXVrZ8KXXcKwwpdddWtnwpddwqTCl111a2fCl13CrsKXXXVrZ8KXXcKhwrLCl111bGfCl13CncKtwp7Cl111aGxnwpddwp3CrcKqwpdddWxnwpddwp3CrcKywpdddWtnwpddwp3CrcKuwpdddW1nwpddwqPCp8KXXXXCl13Cl13CuF3CuGddwq/CtMKrwqBddV3Cr8KgwrPCr13CuGddwq/CtMKrwqBddWxvwrjCmGddwq7Co8KkwqHCr111wrZdwrNddW9tdGlvdG9sc29sdGtvdHNnXcK0XXVsc2xpbG90bXJzcm9wbHF0Z13Cr8KqwqbCoMKpwqTCtcKgwq3ChMKff8Kgwp5ddV1ub3BzcnFvcG1vbnJvb3Ftc2txXcK4Z13CqMKgwq/CnF11wrbCuMK4Z13CscKgwq3CrsKkwqrCqV11bWddwqPCqsKuwq9ddV3CqMKkwq3CqmnCnsKqwqhdwrg=(/miro-data)--&gt;&quot;&gt;&lt;/span&gt;&lt;div&gt;&lt;div&gt;&lt;div&gt;1 - validar os campos&lt;/div&gt;&lt;div&gt;2 - Cadastra o usuário na tabela clientes&lt;/div&gt;&lt;div&gt;3 - Verificar se o usuário já existe na tabela, conferindo pelo valor do email&lt;/div&gt;&lt;/div&gt;&lt;/div&gt;&lt;div&gt;4 - Criptografar o campo de senha&lt;/div&gt;" style="text;whiteSpace=wrap;html=1;fontSize=20;" parent="1" vertex="1">
                    <mxGeometry x="40" y="230" width="530" height="100" as="geometry"/>
                </mxCell>
                <mxCell id="Tx11LzMW8MxVFHNYAhf--12" value="" style="endArrow=open;endFill=1;endSize=12;html=1;rounded=0;fontSize=20;" parent="1" edge="1">
                    <mxGeometry width="160" relative="1" as="geometry">
                        <mxPoint x="84.5" y="450" as="sourcePoint"/>
                        <mxPoint x="85" y="510" as="targetPoint"/>
                    </mxGeometry>
                </mxCell>
                <mxCell id="Tx11LzMW8MxVFHNYAhf--13" value="" style="rounded=1;whiteSpace=wrap;html=1;fontSize=20;" parent="1" vertex="1">
                    <mxGeometry x="25" y="410" width="120" height="40" as="geometry"/>
                </mxCell>
                <mxCell id="Tx11LzMW8MxVFHNYAhf--14" value="LOGIN" style="text;html=1;align=center;verticalAlign=middle;resizable=0;points=[];autosize=1;strokeColor=none;fillColor=none;fontSize=20;" parent="1" vertex="1">
                    <mxGeometry x="40" y="410" width="90" height="40" as="geometry"/>
                </mxCell>
                <mxCell id="Tx11LzMW8MxVFHNYAhf--15" value="POST" style="text;html=1;align=center;verticalAlign=middle;resizable=0;points=[];autosize=1;strokeColor=none;fillColor=none;fontSize=20;" parent="1" vertex="1">
                    <mxGeometry x="45" y="530" width="80" height="40" as="geometry"/>
                </mxCell>
                <mxCell id="Tx11LzMW8MxVFHNYAhf--16" value="" style="rounded=0;whiteSpace=wrap;html=1;fontSize=20;dashed=1;" parent="1" vertex="1">
                    <mxGeometry x="20" y="535" width="790" height="155" as="geometry"/>
                </mxCell>
                <mxCell id="Tx11LzMW8MxVFHNYAhf--17" value="&lt;font style=&quot;font-size: 15px;&quot;&gt;&lt;span style=&quot;background-color: initial;&quot;&gt;1 - validar os campos&lt;/span&gt;&lt;br&gt;&lt;/font&gt;&lt;div style=&quot;font-size: 15px;&quot;&gt;&lt;div style=&quot;&quot;&gt;&lt;font style=&quot;font-size: 15px;&quot;&gt;2 - Verificar se o email e senha bate com algum usuário na tabela clients&lt;/font&gt;&lt;/div&gt;&lt;div style=&quot;&quot;&gt;&lt;span style=&quot;background-color: initial;&quot;&gt;&lt;font style=&quot;font-size: 15px;&quot;&gt;&amp;nbsp; &amp;nbsp; &amp;nbsp;- Se não bater envia uma mensagem falando que usuário&amp;nbsp;não existe e pedir para se cadastrar&lt;/font&gt;&lt;/span&gt;&lt;/div&gt;&lt;div style=&quot;&quot;&gt;&lt;span style=&quot;background-color: initial;&quot;&gt;&lt;font style=&quot;font-size: 15px;&quot;&gt;&amp;nbsp; &amp;nbsp; &amp;nbsp; - Se bater, fazer login com sucesso&lt;br&gt;&lt;/font&gt;&lt;/span&gt;&lt;/div&gt;&lt;div style=&quot;&quot;&gt;&lt;font style=&quot;font-size: 17px;&quot;&gt;2 - Gerar um token&lt;/font&gt;&lt;/div&gt;&lt;div style=&quot;&quot;&gt;&lt;font style=&quot;font-size: 15px;&quot;&gt;3 - Verificar junto do email se existe no objeto a chave de tipo: proficional ou administrador&lt;/font&gt;&lt;/div&gt;&lt;/div&gt;" style="text;whiteSpace=wrap;html=1;fontSize=20;" parent="1" vertex="1">
                    <mxGeometry x="25" y="547.5" width="770" height="140" as="geometry"/>
                </mxCell>
                <mxCell id="Tx11LzMW8MxVFHNYAhf--19" value="" style="ellipse;whiteSpace=wrap;html=1;dashed=1;fontSize=20;" parent="1" vertex="1">
                    <mxGeometry x="295" y="430" width="350" height="80" as="geometry"/>
                </mxCell>
                <mxCell id="Tx11LzMW8MxVFHNYAhf--18" value="&lt;span style=&quot;background-color: rgb(248 , 206 , 204)&quot;&gt;&lt;font color=&quot;#000000&quot;&gt;Cliente&lt;/font&gt;&lt;/span&gt; / &lt;span style=&quot;background-color: rgb(130 , 179 , 102)&quot;&gt;&lt;font color=&quot;#000000&quot;&gt;Proficional&lt;/font&gt;&lt;/span&gt; / &lt;span style=&quot;background-color: rgb(218 , 232 , 252)&quot;&gt;&lt;font color=&quot;#000000&quot;&gt;Administrador&lt;/font&gt;&lt;/span&gt;" style="text;html=1;align=center;verticalAlign=middle;resizable=0;points=[];autosize=1;strokeColor=none;fillColor=none;fontSize=20;" parent="1" vertex="1">
                    <mxGeometry x="305" y="455" width="330" height="30" as="geometry"/>
                </mxCell>
                <mxCell id="Tx11LzMW8MxVFHNYAhf--20" value="" style="endArrow=open;endFill=1;endSize=12;html=1;rounded=0;fontSize=20;entryX=0.498;entryY=-0.085;entryDx=0;entryDy=0;entryPerimeter=0;" parent="1" target="Tx11LzMW8MxVFHNYAhf--23" edge="1">
                    <mxGeometry width="160" relative="1" as="geometry">
                        <mxPoint x="94.5" y="770" as="sourcePoint"/>
                        <mxPoint x="94.5" y="860" as="targetPoint"/>
                    </mxGeometry>
                </mxCell>
                <mxCell id="Tx11LzMW8MxVFHNYAhf--21" value="" style="rounded=1;whiteSpace=wrap;html=1;fontSize=20;" parent="1" vertex="1">
                    <mxGeometry x="20" y="730" width="225" height="40" as="geometry"/>
                </mxCell>
                <mxCell id="Tx11LzMW8MxVFHNYAhf--22" value="MARCAR HORARIO" style="text;html=1;align=center;verticalAlign=middle;resizable=0;points=[];autosize=1;strokeColor=none;fillColor=none;fontSize=20;" parent="1" vertex="1">
                    <mxGeometry x="25" y="730" width="210" height="40" as="geometry"/>
                </mxCell>
                <mxCell id="Tx11LzMW8MxVFHNYAhf--23" value="&lt;span style=&quot;color: rgb(0, 0, 0); font-family: Helvetica; font-size: 20px; font-style: normal; font-variant-ligatures: normal; font-variant-caps: normal; font-weight: 400; letter-spacing: normal; orphans: 2; text-align: center; text-indent: 0px; text-transform: none; widows: 2; word-spacing: 0px; -webkit-text-stroke-width: 0px; background-color: rgb(248, 249, 250); text-decoration-thickness: initial; text-decoration-style: initial; text-decoration-color: initial; float: none; display: inline !important;&quot;&gt;POST&lt;/span&gt;" style="text;html=1;align=center;verticalAlign=middle;resizable=0;points=[];autosize=1;strokeColor=none;fillColor=none;fontSize=20;" parent="1" vertex="1">
                    <mxGeometry x="55" y="850" width="80" height="40" as="geometry"/>
                </mxCell>
                <mxCell id="Tx11LzMW8MxVFHNYAhf--24" value="" style="rounded=0;whiteSpace=wrap;html=1;fontSize=20;dashed=1;" parent="1" vertex="1">
                    <mxGeometry x="30" y="880" width="790" height="210" as="geometry"/>
                </mxCell>
                <mxCell id="Tx11LzMW8MxVFHNYAhf--25" value="&lt;span style=&quot;background-color: initial;&quot;&gt;1 - validar os campos&lt;br&gt;&amp;nbsp; &amp;nbsp;- nome vou puxar da minha tabela clients&lt;br&gt;&lt;/span&gt;&amp;nbsp; &amp;nbsp;- data vai ser puxado do front-end&lt;br&gt;&amp;nbsp; &amp;nbsp;- horário sera um array que o valor será selecionado&lt;br&gt;&amp;nbsp; &amp;nbsp;- especialidades e preço vai ser puxado da minha tabela do proficional&lt;br&gt;&lt;div style=&quot;&quot;&gt;&lt;div&gt;&lt;span style=&quot;background-color: initial;&quot;&gt;2 - Verificar se o token esta batendo com o usuário&amp;nbsp;logado&lt;/span&gt;&lt;br&gt;&lt;/div&gt;&lt;div&gt;&lt;span style=&quot;background-color: initial;&quot;&gt;3 - salvar os dados na tabela de&amp;nbsp;&lt;/span&gt;&lt;span style=&quot;background-color: initial;&quot;&gt;horários&lt;/span&gt;&lt;/div&gt;&lt;div&gt;&lt;span style=&quot;background-color: initial;&quot;&gt;&amp;nbsp; &amp;nbsp; - colocar na tabela o id do cliente e do profissional&amp;nbsp;de forma&amp;nbsp;&lt;/span&gt;&lt;span style=&quot;background-color: initial;&quot;&gt;dinâmica&lt;/span&gt;&lt;/div&gt;&lt;/div&gt;" style="text;whiteSpace=wrap;html=1;fontSize=20;" parent="1" vertex="1">
                    <mxGeometry x="45" y="880" width="775" height="200" as="geometry"/>
                </mxCell>
                <mxCell id="Tx11LzMW8MxVFHNYAhf--26" value="" style="ellipse;whiteSpace=wrap;html=1;dashed=1;fontSize=20;fillColor=#f8cecc;strokeColor=#b85450;" parent="1" vertex="1">
                    <mxGeometry x="305" y="750" width="350" height="80" as="geometry"/>
                </mxCell>
                <mxCell id="Tx11LzMW8MxVFHNYAhf--27" value="&lt;font color=&quot;#000000&quot;&gt;Cliente&lt;/font&gt;" style="text;html=1;align=center;verticalAlign=middle;resizable=0;points=[];autosize=1;strokeColor=none;fillColor=none;fontSize=20;" parent="1" vertex="1">
                    <mxGeometry x="440" y="775" width="80" height="30" as="geometry"/>
                </mxCell>
                <mxCell id="Tx11LzMW8MxVFHNYAhf--30" value="&lt;span style=&quot;color: rgb(0, 0, 0); font-family: Helvetica; font-size: 20px; font-style: normal; font-variant-ligatures: normal; font-variant-caps: normal; font-weight: 400; letter-spacing: normal; orphans: 2; text-align: center; text-indent: 0px; text-transform: none; widows: 2; word-spacing: 0px; -webkit-text-stroke-width: 0px; background-color: rgb(248, 249, 250); text-decoration-thickness: initial; text-decoration-style: initial; text-decoration-color: initial; float: none; display: inline !important;&quot;&gt;POST&lt;/span&gt;" style="text;html=1;align=center;verticalAlign=middle;resizable=0;points=[];autosize=1;strokeColor=none;fillColor=none;fontSize=20;" parent="1" vertex="1">
                    <mxGeometry x="45" y="500" width="80" height="40" as="geometry"/>
                </mxCell>
                <mxCell id="dx-rpCZdKMdFgqDsz-5c-2" value="" style="endArrow=open;endFill=1;endSize=12;html=1;rounded=0;fontSize=20;entryX=0.498;entryY=-0.085;entryDx=0;entryDy=0;entryPerimeter=0;" parent="1" target="dx-rpCZdKMdFgqDsz-5c-5" edge="1">
                    <mxGeometry width="160" relative="1" as="geometry">
                        <mxPoint x="99.5" y="1220" as="sourcePoint"/>
                        <mxPoint x="99.5" y="1310" as="targetPoint"/>
                    </mxGeometry>
                </mxCell>
                <mxCell id="dx-rpCZdKMdFgqDsz-5c-3" value="" style="rounded=1;whiteSpace=wrap;html=1;fontSize=20;" parent="1" vertex="1">
                    <mxGeometry x="60" y="1180" width="150" height="40" as="geometry"/>
                </mxCell>
                <mxCell id="dx-rpCZdKMdFgqDsz-5c-4" value="PROFILE" style="text;html=1;align=center;verticalAlign=middle;resizable=0;points=[];autosize=1;strokeColor=none;fillColor=none;fontSize=20;" parent="1" vertex="1">
                    <mxGeometry x="80" y="1180" width="110" height="40" as="geometry"/>
                </mxCell>
                <mxCell id="dx-rpCZdKMdFgqDsz-5c-5" value="&lt;span style=&quot;color: rgb(0, 0, 0); font-family: Helvetica; font-size: 20px; font-style: normal; font-variant-ligatures: normal; font-variant-caps: normal; font-weight: 400; letter-spacing: normal; orphans: 2; text-align: center; text-indent: 0px; text-transform: none; widows: 2; word-spacing: 0px; -webkit-text-stroke-width: 0px; background-color: rgb(248, 249, 250); text-decoration-thickness: initial; text-decoration-style: initial; text-decoration-color: initial; float: none; display: inline !important;&quot;&gt;GET&lt;/span&gt;" style="text;html=1;align=center;verticalAlign=middle;resizable=0;points=[];autosize=1;strokeColor=none;fillColor=none;fontSize=20;" parent="1" vertex="1">
                    <mxGeometry x="70" y="1300" width="60" height="40" as="geometry"/>
                </mxCell>
                <mxCell id="dx-rpCZdKMdFgqDsz-5c-6" value="" style="rounded=0;whiteSpace=wrap;html=1;fontSize=20;dashed=1;" parent="1" vertex="1">
                    <mxGeometry x="35" y="1330" width="365" height="40" as="geometry"/>
                </mxCell>
                <mxCell id="dx-rpCZdKMdFgqDsz-5c-7" value="&lt;span style=&quot;background-color: initial;&quot;&gt;1 - Obter valores da tabela de clients&amp;nbsp;&lt;br&gt;&lt;/span&gt;" style="text;whiteSpace=wrap;html=1;fontSize=20;" parent="1" vertex="1">
                    <mxGeometry x="50" y="1330" width="340" height="30" as="geometry"/>
                </mxCell>
                <mxCell id="dx-rpCZdKMdFgqDsz-5c-8" value="" style="ellipse;whiteSpace=wrap;html=1;dashed=1;fontSize=20;fillColor=#f8cecc;strokeColor=#b85450;" parent="1" vertex="1">
                    <mxGeometry x="310" y="1200" width="350" height="80" as="geometry"/>
                </mxCell>
                <mxCell id="dx-rpCZdKMdFgqDsz-5c-9" value="&lt;font color=&quot;#000000&quot;&gt;Cliente&lt;/font&gt;" style="text;html=1;align=center;verticalAlign=middle;resizable=0;points=[];autosize=1;strokeColor=none;fillColor=none;fontSize=20;" parent="1" vertex="1">
                    <mxGeometry x="445" y="1225" width="80" height="30" as="geometry"/>
                </mxCell>
                <mxCell id="Ixz32DXAsnnoRp_9srgH-1" value="" style="endArrow=open;endFill=1;endSize=12;html=1;rounded=0;fontSize=20;entryX=0.498;entryY=-0.085;entryDx=0;entryDy=0;entryPerimeter=0;" parent="1" target="Ixz32DXAsnnoRp_9srgH-4" edge="1">
                    <mxGeometry width="160" relative="1" as="geometry">
                        <mxPoint x="99.5" y="1460" as="sourcePoint"/>
                        <mxPoint x="99.5" y="1550" as="targetPoint"/>
                    </mxGeometry>
                </mxCell>
                <mxCell id="Ixz32DXAsnnoRp_9srgH-2" value="" style="rounded=1;whiteSpace=wrap;html=1;fontSize=20;" parent="1" vertex="1">
                    <mxGeometry x="20" y="1420" width="240" height="40" as="geometry"/>
                </mxCell>
                <mxCell id="Ixz32DXAsnnoRp_9srgH-15" value="" style="edgeStyle=orthogonalEdgeStyle;rounded=0;orthogonalLoop=1;jettySize=auto;html=1;fontSize=20;fontColor=#000000;" parent="1" source="Ixz32DXAsnnoRp_9srgH-3" target="Ixz32DXAsnnoRp_9srgH-6" edge="1">
                    <mxGeometry relative="1" as="geometry"/>
                </mxCell>
                <mxCell id="Ixz32DXAsnnoRp_9srgH-3" value="HORÁRIOS MARCADOS" style="text;html=1;align=center;verticalAlign=middle;resizable=0;points=[];autosize=1;strokeColor=none;fillColor=none;fontSize=20;" parent="1" vertex="1">
                    <mxGeometry x="15" y="1420" width="250" height="40" as="geometry"/>
                </mxCell>
                <mxCell id="Ixz32DXAsnnoRp_9srgH-4" value="&lt;span style=&quot;color: rgb(0, 0, 0); font-family: Helvetica; font-size: 20px; font-style: normal; font-variant-ligatures: normal; font-variant-caps: normal; font-weight: 400; letter-spacing: normal; orphans: 2; text-align: center; text-indent: 0px; text-transform: none; widows: 2; word-spacing: 0px; -webkit-text-stroke-width: 0px; background-color: rgb(248, 249, 250); text-decoration-thickness: initial; text-decoration-style: initial; text-decoration-color: initial; float: none; display: inline !important;&quot;&gt;GET&lt;/span&gt;" style="text;html=1;align=center;verticalAlign=middle;resizable=0;points=[];autosize=1;strokeColor=none;fillColor=none;fontSize=20;" parent="1" vertex="1">
                    <mxGeometry x="70" y="1530" width="60" height="40" as="geometry"/>
                </mxCell>
                <mxCell id="Ixz32DXAsnnoRp_9srgH-5" value="" style="rounded=0;whiteSpace=wrap;html=1;fontSize=20;dashed=1;" parent="1" vertex="1">
                    <mxGeometry x="35" y="1570" width="525" height="40" as="geometry"/>
                </mxCell>
                <mxCell id="Ixz32DXAsnnoRp_9srgH-6" value="&lt;span style=&quot;background-color: initial;&quot;&gt;1 - Obter valores da tabela de horários&amp;nbsp;do cliente logado&amp;nbsp;&lt;br&gt;&lt;/span&gt;" style="text;whiteSpace=wrap;html=1;fontSize=20;" parent="1" vertex="1">
                    <mxGeometry x="50" y="1570" width="510" height="40" as="geometry"/>
                </mxCell>
                <mxCell id="Ixz32DXAsnnoRp_9srgH-7" value="" style="ellipse;whiteSpace=wrap;html=1;dashed=1;fontSize=20;fillColor=#f8cecc;strokeColor=#b85450;" parent="1" vertex="1">
                    <mxGeometry x="310" y="1440" width="350" height="80" as="geometry"/>
                </mxCell>
                <mxCell id="Ixz32DXAsnnoRp_9srgH-8" value="&lt;font color=&quot;#000000&quot;&gt;Cliente&lt;/font&gt;" style="text;html=1;align=center;verticalAlign=middle;resizable=0;points=[];autosize=1;strokeColor=none;fillColor=none;fontSize=20;" parent="1" vertex="1">
                    <mxGeometry x="445" y="1465" width="80" height="30" as="geometry"/>
                </mxCell>
                <mxCell id="Ixz32DXAsnnoRp_9srgH-9" value="&lt;span style=&quot;color: rgb(0, 0, 0); font-family: Helvetica; font-size: 20px; font-style: normal; font-variant-ligatures: normal; font-variant-caps: normal; font-weight: 400; letter-spacing: normal; orphans: 2; text-align: center; text-indent: 0px; text-transform: none; widows: 2; word-spacing: 0px; -webkit-text-stroke-width: 0px; background-color: rgb(248, 249, 250); text-decoration-thickness: initial; text-decoration-style: initial; text-decoration-color: initial; float: none; display: inline !important;&quot;&gt;DELETE&lt;/span&gt;" style="text;html=1;align=center;verticalAlign=middle;resizable=0;points=[];autosize=1;strokeColor=none;fillColor=none;fontSize=20;" parent="1" vertex="1">
                    <mxGeometry x="50" y="1630" width="100" height="40" as="geometry"/>
                </mxCell>
                <mxCell id="Ixz32DXAsnnoRp_9srgH-10" value="" style="rounded=0;whiteSpace=wrap;html=1;fontSize=20;dashed=1;" parent="1" vertex="1">
                    <mxGeometry x="35" y="1670" width="525" height="40" as="geometry"/>
                </mxCell>
                <mxCell id="Ixz32DXAsnnoRp_9srgH-11" value="&lt;span style=&quot;background-color: initial;&quot;&gt;1 - Deletar horário&amp;nbsp;&lt;br&gt;&lt;/span&gt;" style="text;whiteSpace=wrap;html=1;fontSize=20;" parent="1" vertex="1">
                    <mxGeometry x="50" y="1670" width="250" height="40" as="geometry"/>
                </mxCell>
                <mxCell id="Ixz32DXAsnnoRp_9srgH-12" value="" style="endArrow=none;html=1;rounded=0;fontSize=20;fillColor=#f8cecc;strokeColor=#b85450;" parent="1" edge="1">
                    <mxGeometry width="50" height="50" relative="1" as="geometry">
                        <mxPoint x="10" y="1400" as="sourcePoint"/>
                        <mxPoint x="820" y="1400" as="targetPoint"/>
                        <Array as="points"/>
                    </mxGeometry>
                </mxCell>
                <mxCell id="Ixz32DXAsnnoRp_9srgH-13" value="" style="endArrow=none;html=1;rounded=0;fontSize=20;fillColor=#f8cecc;strokeColor=#b85450;" parent="1" edge="1">
                    <mxGeometry width="50" height="50" relative="1" as="geometry">
                        <mxPoint x="10" y="1169" as="sourcePoint"/>
                        <mxPoint x="820" y="1169" as="targetPoint"/>
                        <Array as="points"/>
                    </mxGeometry>
                </mxCell>
                <mxCell id="Ixz32DXAsnnoRp_9srgH-14" value="" style="endArrow=none;html=1;rounded=0;fontSize=20;fillColor=#f8cecc;strokeColor=#b85450;" parent="1" edge="1">
                    <mxGeometry width="50" height="50" relative="1" as="geometry">
                        <mxPoint x="10" y="720" as="sourcePoint"/>
                        <mxPoint x="820" y="720" as="targetPoint"/>
                        <Array as="points"/>
                    </mxGeometry>
                </mxCell>
                <mxCell id="Ixz32DXAsnnoRp_9srgH-28" value="" style="endArrow=open;endFill=1;endSize=12;html=1;rounded=0;fontSize=20;entryX=0.498;entryY=-0.085;entryDx=0;entryDy=0;entryPerimeter=0;" parent="1" target="Ixz32DXAsnnoRp_9srgH-32" edge="1">
                    <mxGeometry width="160" relative="1" as="geometry">
                        <mxPoint x="99.5" y="1814" as="sourcePoint"/>
                        <mxPoint x="99.5" y="1904" as="targetPoint"/>
                    </mxGeometry>
                </mxCell>
                <mxCell id="Ixz32DXAsnnoRp_9srgH-29" value="" style="rounded=1;whiteSpace=wrap;html=1;fontSize=20;" parent="1" vertex="1">
                    <mxGeometry x="20" y="1774" width="240" height="40" as="geometry"/>
                </mxCell>
                <mxCell id="Ixz32DXAsnnoRp_9srgH-31" value="HORÁRIOS MARCADOS" style="text;html=1;align=center;verticalAlign=middle;resizable=0;points=[];autosize=1;strokeColor=none;fillColor=none;fontSize=20;" parent="1" vertex="1">
                    <mxGeometry x="15" y="1774" width="250" height="40" as="geometry"/>
                </mxCell>
                <mxCell id="Ixz32DXAsnnoRp_9srgH-32" value="&lt;span style=&quot;color: rgb(0, 0, 0); font-family: Helvetica; font-size: 20px; font-style: normal; font-variant-ligatures: normal; font-variant-caps: normal; font-weight: 400; letter-spacing: normal; orphans: 2; text-align: center; text-indent: 0px; text-transform: none; widows: 2; word-spacing: 0px; -webkit-text-stroke-width: 0px; background-color: rgb(248, 249, 250); text-decoration-thickness: initial; text-decoration-style: initial; text-decoration-color: initial; float: none; display: inline !important;&quot;&gt;GET&lt;/span&gt;" style="text;html=1;align=center;verticalAlign=middle;resizable=0;points=[];autosize=1;strokeColor=none;fillColor=none;fontSize=20;" parent="1" vertex="1">
                    <mxGeometry x="70" y="1884" width="60" height="40" as="geometry"/>
                </mxCell>
                <mxCell id="Ixz32DXAsnnoRp_9srgH-33" value="" style="rounded=0;whiteSpace=wrap;html=1;fontSize=20;dashed=1;" parent="1" vertex="1">
                    <mxGeometry x="35" y="1924" width="525" height="40" as="geometry"/>
                </mxCell>
                <mxCell id="Ixz32DXAsnnoRp_9srgH-34" value="&lt;span style=&quot;background-color: initial;&quot;&gt;1 - Obter valores da tabela de horários do profissional&amp;nbsp;&lt;br&gt;&lt;/span&gt;" style="text;whiteSpace=wrap;html=1;fontSize=20;" parent="1" vertex="1">
                    <mxGeometry x="50" y="1924" width="510" height="40" as="geometry"/>
                </mxCell>
                <mxCell id="Ixz32DXAsnnoRp_9srgH-35" value="" style="ellipse;whiteSpace=wrap;html=1;dashed=1;fontSize=20;fillColor=#82B366;strokeColor=#82B366;" parent="1" vertex="1">
                    <mxGeometry x="305" y="1794" width="350" height="80" as="geometry"/>
                </mxCell>
                <mxCell id="Ixz32DXAsnnoRp_9srgH-36" value="&lt;font color=&quot;#000000&quot;&gt;Profissional&lt;/font&gt;" style="text;html=1;align=center;verticalAlign=middle;resizable=0;points=[];autosize=1;strokeColor=none;fillColor=none;fontSize=20;" parent="1" vertex="1">
                    <mxGeometry x="425" y="1819" width="120" height="30" as="geometry"/>
                </mxCell>
                <mxCell id="Ixz32DXAsnnoRp_9srgH-37" value="&lt;span style=&quot;color: rgb(0, 0, 0); font-family: Helvetica; font-size: 20px; font-style: normal; font-variant-ligatures: normal; font-variant-caps: normal; font-weight: 400; letter-spacing: normal; orphans: 2; text-align: center; text-indent: 0px; text-transform: none; widows: 2; word-spacing: 0px; -webkit-text-stroke-width: 0px; background-color: rgb(248, 249, 250); text-decoration-thickness: initial; text-decoration-style: initial; text-decoration-color: initial; float: none; display: inline !important;&quot;&gt;DELETE&lt;/span&gt;" style="text;html=1;align=center;verticalAlign=middle;resizable=0;points=[];autosize=1;strokeColor=none;fillColor=none;fontSize=20;" parent="1" vertex="1">
                    <mxGeometry x="50" y="1984" width="100" height="40" as="geometry"/>
                </mxCell>
                <mxCell id="Ixz32DXAsnnoRp_9srgH-38" value="" style="rounded=0;whiteSpace=wrap;html=1;fontSize=20;dashed=1;" parent="1" vertex="1">
                    <mxGeometry x="35" y="2024" width="525" height="40" as="geometry"/>
                </mxCell>
                <mxCell id="Ixz32DXAsnnoRp_9srgH-39" value="&lt;span style=&quot;background-color: initial;&quot;&gt;1 - Deletar horário clicando no feito ou no X&amp;nbsp;&lt;br&gt;&lt;/span&gt;" style="text;whiteSpace=wrap;html=1;fontSize=20;" parent="1" vertex="1">
                    <mxGeometry x="50" y="2024" width="410" height="40" as="geometry"/>
                </mxCell>
                <mxCell id="Ixz32DXAsnnoRp_9srgH-40" value="" style="endArrow=none;html=1;rounded=0;fontSize=20;fillColor=#d5e8d4;strokeColor=#82B366;" parent="1" edge="1">
                    <mxGeometry width="50" height="50" relative="1" as="geometry">
                        <mxPoint x="10" y="1760" as="sourcePoint"/>
                        <mxPoint x="820" y="1760" as="targetPoint"/>
                        <Array as="points"/>
                    </mxGeometry>
                </mxCell>
                <mxCell id="Ixz32DXAsnnoRp_9srgH-41" value="" style="endArrow=open;endFill=1;endSize=12;html=1;rounded=0;fontSize=20;entryX=0.498;entryY=-0.085;entryDx=0;entryDy=0;entryPerimeter=0;" parent="1" target="Ixz32DXAsnnoRp_9srgH-45" edge="1">
                    <mxGeometry width="160" relative="1" as="geometry">
                        <mxPoint x="104.5" y="2164" as="sourcePoint"/>
                        <mxPoint x="104.5" y="2254" as="targetPoint"/>
                    </mxGeometry>
                </mxCell>
                <mxCell id="Ixz32DXAsnnoRp_9srgH-42" value="" style="rounded=1;whiteSpace=wrap;html=1;fontSize=20;" parent="1" vertex="1">
                    <mxGeometry x="25" y="2124" width="240" height="40" as="geometry"/>
                </mxCell>
                <mxCell id="Ixz32DXAsnnoRp_9srgH-44" value="PROFILE" style="text;html=1;align=center;verticalAlign=middle;resizable=0;points=[];autosize=1;strokeColor=none;fillColor=none;fontSize=20;" parent="1" vertex="1">
                    <mxGeometry x="90" y="2124" width="110" height="40" as="geometry"/>
                </mxCell>
                <mxCell id="Ixz32DXAsnnoRp_9srgH-45" value="&lt;span style=&quot;color: rgb(0, 0, 0); font-family: Helvetica; font-size: 20px; font-style: normal; font-variant-ligatures: normal; font-variant-caps: normal; font-weight: 400; letter-spacing: normal; orphans: 2; text-align: center; text-indent: 0px; text-transform: none; widows: 2; word-spacing: 0px; -webkit-text-stroke-width: 0px; background-color: rgb(248, 249, 250); text-decoration-thickness: initial; text-decoration-style: initial; text-decoration-color: initial; float: none; display: inline !important;&quot;&gt;GET&lt;/span&gt;" style="text;html=1;align=center;verticalAlign=middle;resizable=0;points=[];autosize=1;strokeColor=none;fillColor=none;fontSize=20;" parent="1" vertex="1">
                    <mxGeometry x="75" y="2234" width="60" height="40" as="geometry"/>
                </mxCell>
                <mxCell id="Ixz32DXAsnnoRp_9srgH-46" value="" style="rounded=0;whiteSpace=wrap;html=1;fontSize=20;dashed=1;" parent="1" vertex="1">
                    <mxGeometry x="25" y="2274" width="405" height="46" as="geometry"/>
                </mxCell>
                <mxCell id="Ixz32DXAsnnoRp_9srgH-47" value="&lt;span style=&quot;background-color: initial;&quot;&gt;1 - Obter valores da tabela de clientes&lt;br&gt;&lt;br&gt;&lt;/span&gt;" style="text;whiteSpace=wrap;html=1;fontSize=20;" parent="1" vertex="1">
                    <mxGeometry x="40" y="2280" width="390" height="30" as="geometry"/>
                </mxCell>
                <mxCell id="Ixz32DXAsnnoRp_9srgH-48" value="" style="ellipse;whiteSpace=wrap;html=1;dashed=1;fontSize=20;fillColor=#82B366;strokeColor=#82B366;" parent="1" vertex="1">
                    <mxGeometry x="310" y="2144" width="350" height="80" as="geometry"/>
                </mxCell>
                <mxCell id="Ixz32DXAsnnoRp_9srgH-49" value="&lt;font color=&quot;#000000&quot;&gt;Profissional&lt;/font&gt;" style="text;html=1;align=center;verticalAlign=middle;resizable=0;points=[];autosize=1;strokeColor=none;fillColor=none;fontSize=20;" parent="1" vertex="1">
                    <mxGeometry x="430" y="2169" width="120" height="30" as="geometry"/>
                </mxCell>
                <mxCell id="Ixz32DXAsnnoRp_9srgH-53" value="" style="endArrow=none;html=1;rounded=0;fontSize=20;fillColor=#d5e8d4;strokeColor=#82B366;" parent="1" edge="1">
                    <mxGeometry width="50" height="50" relative="1" as="geometry">
                        <mxPoint x="15" y="2110" as="sourcePoint"/>
                        <mxPoint x="820" y="2110" as="targetPoint"/>
                        <Array as="points"/>
                    </mxGeometry>
                </mxCell>
                <mxCell id="Ixz32DXAsnnoRp_9srgH-59" value="&lt;span style=&quot;color: rgb(0, 0, 0); font-family: Helvetica; font-size: 20px; font-style: normal; font-variant-ligatures: normal; font-variant-caps: normal; font-weight: 400; letter-spacing: normal; orphans: 2; text-align: center; text-indent: 0px; text-transform: none; widows: 2; word-spacing: 0px; -webkit-text-stroke-width: 0px; background-color: rgb(248, 249, 250); text-decoration-thickness: initial; text-decoration-style: initial; text-decoration-color: initial; float: none; display: inline !important;&quot;&gt;POST&lt;/span&gt;" style="text;html=1;align=center;verticalAlign=middle;resizable=0;points=[];autosize=1;strokeColor=none;fillColor=none;fontSize=20;" parent="1" vertex="1">
                    <mxGeometry x="45" y="2664" width="80" height="40" as="geometry"/>
                </mxCell>
                <mxCell id="Ixz32DXAsnnoRp_9srgH-60" value="" style="rounded=0;whiteSpace=wrap;html=1;fontSize=20;dashed=1;" parent="1" vertex="1">
                    <mxGeometry x="8" y="2700" width="405" height="40" as="geometry"/>
                </mxCell>
                <mxCell id="Ixz32DXAsnnoRp_9srgH-61" value="&lt;span style=&quot;background-color: initial;&quot;&gt;1 - Criar profissional&lt;br&gt;&lt;/span&gt;" style="text;whiteSpace=wrap;html=1;fontSize=20;" parent="1" vertex="1">
                    <mxGeometry x="23" y="2700" width="390" height="30" as="geometry"/>
                </mxCell>
                <mxCell id="Ixz32DXAsnnoRp_9srgH-64" value="" style="endArrow=none;html=1;rounded=0;fontSize=20;fillColor=#dae8fc;strokeColor=#6c8ebf;" parent="1" edge="1">
                    <mxGeometry width="50" height="50" relative="1" as="geometry">
                        <mxPoint x="7.999999999999886" y="2760" as="sourcePoint"/>
                        <mxPoint x="820" y="2760" as="targetPoint"/>
                        <Array as="points"/>
                    </mxGeometry>
                </mxCell>
                <mxCell id="Ixz32DXAsnnoRp_9srgH-92" value="" style="endArrow=open;endFill=1;endSize=12;html=1;rounded=0;fontSize=20;" parent="1" edge="1">
                    <mxGeometry width="160" relative="1" as="geometry">
                        <mxPoint x="80" y="2500" as="sourcePoint"/>
                        <mxPoint x="80" y="2520" as="targetPoint"/>
                        <Array as="points">
                            <mxPoint x="80" y="2430"/>
                        </Array>
                    </mxGeometry>
                </mxCell>
                <mxCell id="Ixz32DXAsnnoRp_9srgH-93" value="&lt;span style=&quot;&quot;&gt;GERENCIAR USUÁRIOS&lt;/span&gt;" style="rounded=1;whiteSpace=wrap;html=1;fontSize=20;" parent="1" vertex="1">
                    <mxGeometry x="25" y="2400" width="240" height="40" as="geometry"/>
                </mxCell>
                <mxCell id="Ixz32DXAsnnoRp_9srgH-94" value="&lt;span style=&quot;color: rgb(0, 0, 0); font-family: Helvetica; font-size: 20px; font-style: normal; font-variant-ligatures: normal; font-variant-caps: normal; font-weight: 400; letter-spacing: normal; orphans: 2; text-align: center; text-indent: 0px; text-transform: none; widows: 2; word-spacing: 0px; -webkit-text-stroke-width: 0px; background-color: rgb(248, 249, 250); text-decoration-thickness: initial; text-decoration-style: initial; text-decoration-color: initial; float: none; display: inline !important;&quot;&gt;GET&lt;/span&gt;" style="text;html=1;align=center;verticalAlign=middle;resizable=0;points=[];autosize=1;strokeColor=none;fillColor=none;fontSize=20;" parent="1" vertex="1">
                    <mxGeometry x="50" y="2510" width="60" height="40" as="geometry"/>
                </mxCell>
                <mxCell id="Ixz32DXAsnnoRp_9srgH-95" value="" style="rounded=0;whiteSpace=wrap;html=1;fontSize=20;dashed=1;" parent="1" vertex="1">
                    <mxGeometry x="8" y="2542" width="405" height="36" as="geometry"/>
                </mxCell>
                <mxCell id="Ixz32DXAsnnoRp_9srgH-96" value="&lt;span style=&quot;background-color: initial;&quot;&gt;1 - Obter valores da tabela de profissional&lt;br&gt;&lt;br&gt;&lt;/span&gt;" style="text;whiteSpace=wrap;html=1;fontSize=20;" parent="1" vertex="1">
                    <mxGeometry x="24" y="2540" width="390" height="30" as="geometry"/>
                </mxCell>
                <mxCell id="Ixz32DXAsnnoRp_9srgH-97" value="" style="ellipse;whiteSpace=wrap;html=1;dashed=1;fontSize=20;fillColor=#dae8fc;strokeColor=#6c8ebf;" parent="1" vertex="1">
                    <mxGeometry x="340" y="2430" width="350" height="80" as="geometry"/>
                </mxCell>
                <mxCell id="Ixz32DXAsnnoRp_9srgH-98" value="&lt;font color=&quot;#000000&quot;&gt;Administrador&lt;/font&gt;" style="text;html=1;align=center;verticalAlign=middle;resizable=0;points=[];autosize=1;strokeColor=none;fillColor=none;fontSize=20;" parent="1" vertex="1">
                    <mxGeometry x="450" y="2455" width="140" height="30" as="geometry"/>
                </mxCell>
                <mxCell id="Ixz32DXAsnnoRp_9srgH-99" value="&lt;span style=&quot;color: rgb(0, 0, 0); font-family: Helvetica; font-size: 20px; font-style: normal; font-variant-ligatures: normal; font-variant-caps: normal; font-weight: 400; letter-spacing: normal; orphans: 2; text-align: center; text-indent: 0px; text-transform: none; widows: 2; word-spacing: 0px; -webkit-text-stroke-width: 0px; background-color: rgb(248, 249, 250); text-decoration-thickness: initial; text-decoration-style: initial; text-decoration-color: initial; float: none; display: inline !important;&quot;&gt;DELETE&lt;/span&gt;" style="text;html=1;align=center;verticalAlign=middle;resizable=0;points=[];autosize=1;strokeColor=none;fillColor=none;fontSize=20;" parent="1" vertex="1">
                    <mxGeometry x="38" y="2578" width="100" height="40" as="geometry"/>
                </mxCell>
                <mxCell id="Ixz32DXAsnnoRp_9srgH-100" value="" style="rounded=0;whiteSpace=wrap;html=1;fontSize=20;dashed=1;" parent="1" vertex="1">
                    <mxGeometry x="8" y="2618" width="405" height="46" as="geometry"/>
                </mxCell>
                <mxCell id="Ixz32DXAsnnoRp_9srgH-101" value="1 - Deletar profissional clicando no X&amp;nbsp;&lt;span style=&quot;background-color: initial;&quot;&gt;&lt;br&gt;&lt;/span&gt;" style="text;whiteSpace=wrap;html=1;fontSize=20;" parent="1" vertex="1">
                    <mxGeometry x="23" y="2624" width="340" height="30" as="geometry"/>
                </mxCell>
                <mxCell id="Ixz32DXAsnnoRp_9srgH-105" value="" style="endArrow=open;endFill=1;endSize=12;html=1;rounded=0;fontSize=20;entryX=0.498;entryY=-0.085;entryDx=0;entryDy=0;entryPerimeter=0;" parent="1" target="Ixz32DXAsnnoRp_9srgH-108" edge="1">
                    <mxGeometry width="160" relative="1" as="geometry">
                        <mxPoint x="97.50000000000011" y="2854" as="sourcePoint"/>
                        <mxPoint x="97.5" y="2944" as="targetPoint"/>
                    </mxGeometry>
                </mxCell>
                <mxCell id="Ixz32DXAsnnoRp_9srgH-106" value="" style="rounded=1;whiteSpace=wrap;html=1;fontSize=20;" parent="1" vertex="1">
                    <mxGeometry x="18" y="2814" width="240" height="40" as="geometry"/>
                </mxCell>
                <mxCell id="Ixz32DXAsnnoRp_9srgH-107" value="PROFILE" style="text;html=1;align=center;verticalAlign=middle;resizable=0;points=[];autosize=1;strokeColor=none;fillColor=none;fontSize=20;" parent="1" vertex="1">
                    <mxGeometry x="83" y="2814" width="110" height="40" as="geometry"/>
                </mxCell>
                <mxCell id="Ixz32DXAsnnoRp_9srgH-108" value="&lt;span style=&quot;color: rgb(0, 0, 0); font-family: Helvetica; font-size: 20px; font-style: normal; font-variant-ligatures: normal; font-variant-caps: normal; font-weight: 400; letter-spacing: normal; orphans: 2; text-align: center; text-indent: 0px; text-transform: none; widows: 2; word-spacing: 0px; -webkit-text-stroke-width: 0px; background-color: rgb(248, 249, 250); text-decoration-thickness: initial; text-decoration-style: initial; text-decoration-color: initial; float: none; display: inline !important;&quot;&gt;GET&lt;/span&gt;" style="text;html=1;align=center;verticalAlign=middle;resizable=0;points=[];autosize=1;strokeColor=none;fillColor=none;fontSize=20;" parent="1" vertex="1">
                    <mxGeometry x="68" y="2924" width="60" height="40" as="geometry"/>
                </mxCell>
                <mxCell id="Ixz32DXAsnnoRp_9srgH-109" value="" style="rounded=0;whiteSpace=wrap;html=1;fontSize=20;dashed=1;" parent="1" vertex="1">
                    <mxGeometry x="18" y="2964" width="405" height="46" as="geometry"/>
                </mxCell>
                <mxCell id="Ixz32DXAsnnoRp_9srgH-110" value="&lt;span style=&quot;background-color: initial;&quot;&gt;1 - Obter valores da tabela de clientes&lt;br&gt;&lt;br&gt;&lt;/span&gt;" style="text;whiteSpace=wrap;html=1;fontSize=20;" parent="1" vertex="1">
                    <mxGeometry x="33" y="2970" width="390" height="30" as="geometry"/>
                </mxCell>
                <mxCell id="Ixz32DXAsnnoRp_9srgH-111" value="" style="ellipse;whiteSpace=wrap;html=1;dashed=1;fontSize=20;fillColor=#DAE8FC;strokeColor=#6c8ebf;" parent="1" vertex="1">
                    <mxGeometry x="303" y="2834" width="350" height="80" as="geometry"/>
                </mxCell>
                <mxCell id="Ixz32DXAsnnoRp_9srgH-112" value="&lt;font color=&quot;#000000&quot;&gt;Administrador&lt;/font&gt;" style="text;html=1;align=center;verticalAlign=middle;resizable=0;points=[];autosize=1;strokeColor=none;fillColor=none;fontSize=20;" parent="1" vertex="1">
                    <mxGeometry x="413" y="2859" width="140" height="30" as="geometry"/>
                </mxCell>
                <mxCell id="Ixz32DXAsnnoRp_9srgH-114" value="" style="endArrow=none;html=1;rounded=0;fontSize=20;fillColor=#dae8fc;strokeColor=#6c8ebf;" parent="1" edge="1">
                    <mxGeometry width="50" height="50" relative="1" as="geometry">
                        <mxPoint x="10" y="2360" as="sourcePoint"/>
                        <mxPoint x="820" y="2360" as="targetPoint"/>
                        <Array as="points"/>
                    </mxGeometry>
                </mxCell>
            </root>
        </mxGraphModel>
    </diagram>
    <diagram name="Page-3" id="0lB6NCtxKPWf9IzhFlnO">
        <mxGraphModel dx="877" dy="605" grid="1" gridSize="10" guides="1" tooltips="1" connect="1" arrows="1" fold="1" page="1" pageScale="1" pageWidth="827" pageHeight="1169" math="0" shadow="0">
            <root>
                <mxCell id="0"/>
                <mxCell id="1" parent="0"/>
                <mxCell id="edbFJAN6jYuSnjtKabjJ-1" value="&lt;font size=&quot;1&quot;&gt;&lt;b style=&quot;font-size: 25px ; background-color: rgb(255 , 255 , 255)&quot;&gt;FORMATO DOS OBJETOS&lt;/b&gt;&lt;/font&gt;" style="text;html=1;align=center;verticalAlign=middle;resizable=0;points=[];autosize=1;strokeColor=none;fillColor=none;fontSize=17;fontColor=#000000;" parent="1" vertex="1">
                    <mxGeometry x="248" y="15" width="330" height="30" as="geometry"/>
                </mxCell>
                <mxCell id="edbFJAN6jYuSnjtKabjJ-2" value="&lt;font style=&quot;font-size: 15px&quot; color=&quot;#000000&quot;&gt;&lt;span&gt;[&lt;/span&gt;&lt;br&gt;&lt;/font&gt;&lt;div style=&quot;font-size: 15px&quot;&gt;&lt;div&gt;&lt;font style=&quot;font-size: 15px&quot; color=&quot;#000000&quot;&gt; {&lt;/font&gt;&lt;/div&gt;&lt;div&gt;&lt;font style=&quot;font-size: 15px&quot; color=&quot;#000000&quot;&gt;&amp;nbsp; &amp;nbsp; &amp;nbsp; &amp;nbsp; id: 1&lt;/font&gt;&lt;/div&gt;&lt;div&gt;&lt;font style=&quot;font-size: 15px&quot; color=&quot;#000000&quot;&gt;&amp;nbsp; &amp;nbsp; &amp;nbsp; &amp;nbsp; fullName: Julia elena mariana&lt;/font&gt;&lt;/div&gt;&lt;div&gt;&lt;font style=&quot;font-size: 15px&quot; color=&quot;#000000&quot;&gt;&amp;nbsp; &amp;nbsp; &amp;nbsp; &amp;nbsp; email: julia@gmail.com&lt;/font&gt;&lt;/div&gt;&lt;div&gt;&lt;font style=&quot;font-size: 15px&quot; color=&quot;#000000&quot;&gt;&amp;nbsp; &amp;nbsp; &amp;nbsp; &amp;nbsp; senha: ********&lt;/font&gt;&lt;/div&gt;&lt;div&gt;&lt;font style=&quot;font-size: 15px&quot; color=&quot;#000000&quot;&gt;   proficonal: heloisa ezequiel&lt;/font&gt;&lt;/div&gt;&lt;div&gt;&lt;font style=&quot;font-size: 15px&quot; color=&quot;#000000&quot;&gt;  &amp;nbsp; &amp;nbsp; &amp;nbsp;endereço: {&lt;/font&gt;&lt;/div&gt;&lt;div&gt;&lt;font style=&quot;font-size: 15px&quot; color=&quot;#000000&quot;&gt;&amp;nbsp; &amp;nbsp; &amp;nbsp; &amp;nbsp; &amp;nbsp; &amp;nbsp; &amp;nbsp;endereco: rua ....&lt;/font&gt;&lt;/div&gt;&lt;div&gt;&lt;font style=&quot;font-size: 15px&quot; color=&quot;#000000&quot;&gt;  &amp;nbsp; &amp;nbsp; &amp;nbsp; numeru: 35&lt;/font&gt;&lt;/div&gt;&lt;div&gt;&lt;font style=&quot;font-size: 15px&quot; color=&quot;#000000&quot;&gt;  &amp;nbsp; &amp;nbsp; &amp;nbsp; complemento: .....&lt;/font&gt;&lt;/div&gt;&lt;div&gt;&lt;font style=&quot;font-size: 15px&quot; color=&quot;#000000&quot;&gt;&lt;span&gt;&#9;&lt;/span&gt;&amp;nbsp; &amp;nbsp; &amp;nbsp; &amp;nbsp; &amp;nbsp; &amp;nbsp; &amp;nbsp;cep: ...&lt;br&gt;&lt;/font&gt;&lt;/div&gt;&lt;div&gt;&lt;font style=&quot;font-size: 15px&quot; color=&quot;#000000&quot;&gt;&amp;nbsp; &amp;nbsp; &amp;nbsp; &amp;nbsp; &amp;nbsp;}&lt;/font&gt;&lt;/div&gt;&lt;div&gt;&lt;font style=&quot;font-size: 15px&quot; color=&quot;#000000&quot;&gt;&amp;nbsp; &amp;nbsp;},&lt;/font&gt;&lt;/div&gt;&lt;div&gt;&lt;div&gt;&lt;font style=&quot;font-size: 15px&quot; color=&quot;#000000&quot;&gt; {&lt;/font&gt;&lt;/div&gt;&lt;div&gt;&lt;font style=&quot;font-size: 15px&quot; color=&quot;#000000&quot;&gt;&amp;nbsp; &amp;nbsp; &amp;nbsp; &amp;nbsp; id: 2&lt;/font&gt;&lt;/div&gt;&lt;div&gt;&lt;font style=&quot;font-size: 15px&quot; color=&quot;#000000&quot;&gt;&amp;nbsp; &amp;nbsp; &amp;nbsp; &amp;nbsp; fullName: Julia elena mariana&lt;/font&gt;&lt;/div&gt;&lt;div&gt;&lt;font style=&quot;font-size: 15px&quot; color=&quot;#000000&quot;&gt;&amp;nbsp; &amp;nbsp; &amp;nbsp; &amp;nbsp; email: julia@gmail.com&lt;/font&gt;&lt;/div&gt;&lt;div&gt;&lt;font style=&quot;font-size: 15px&quot; color=&quot;#000000&quot;&gt;&amp;nbsp; &amp;nbsp; &amp;nbsp; &amp;nbsp; senha: ********&lt;/font&gt;&lt;/div&gt;&lt;div&gt;&lt;font style=&quot;font-size: 15px&quot; color=&quot;#000000&quot;&gt;   proficonal: heloisa ezequiel&lt;/font&gt;&lt;/div&gt;&lt;div&gt;&lt;font style=&quot;font-size: 15px&quot; color=&quot;#000000&quot;&gt; &amp;nbsp; &amp;nbsp; &amp;nbsp;Endereço: {&lt;/font&gt;&lt;/div&gt;&lt;div&gt;&lt;font style=&quot;font-size: 15px&quot; color=&quot;#000000&quot;&gt;&amp;nbsp; &amp;nbsp; &amp;nbsp; &amp;nbsp; &amp;nbsp; &amp;nbsp; &amp;nbsp;endreco: rua ....&lt;/font&gt;&lt;/div&gt;&lt;div&gt;&lt;font style=&quot;font-size: 15px&quot; color=&quot;#000000&quot;&gt;  &amp;nbsp; &amp;nbsp; &amp;nbsp; numeru: 35&lt;/font&gt;&lt;/div&gt;&lt;div&gt;&lt;font style=&quot;font-size: 15px&quot; color=&quot;#000000&quot;&gt;  &amp;nbsp; &amp;nbsp; &amp;nbsp; complemento: .....&lt;/font&gt;&lt;/div&gt;&lt;div&gt;&lt;font style=&quot;font-size: 15px&quot; color=&quot;#000000&quot;&gt;&lt;span&gt;&#9;&lt;/span&gt;&amp;nbsp; &amp;nbsp; &amp;nbsp;cep: ...&lt;br&gt;&lt;/font&gt;&lt;/div&gt;&lt;div&gt;&lt;font style=&quot;font-size: 15px&quot; color=&quot;#000000&quot;&gt;&amp;nbsp; &amp;nbsp; &amp;nbsp; &amp;nbsp; &amp;nbsp;}&lt;/font&gt;&lt;/div&gt;&lt;div&gt;&lt;font style=&quot;font-size: 15px&quot; color=&quot;#000000&quot;&gt;&amp;nbsp; &amp;nbsp;},&lt;/font&gt;&lt;/div&gt;&lt;/div&gt;&lt;div&gt;&lt;font style=&quot;font-size: 15px&quot; color=&quot;#000000&quot;&gt;&lt;br&gt;&lt;/font&gt;&lt;/div&gt;&lt;div&gt;&lt;font style=&quot;font-size: 15px&quot; color=&quot;#000000&quot;&gt;]&lt;/font&gt;&lt;/div&gt;&lt;/div&gt;" style="text;whiteSpace=wrap;html=1;fontSize=25;fillColor=#f8cecc;strokeColor=#b85450;" parent="1" vertex="1">
                    <mxGeometry x="3.5" y="130" width="236.5" height="550" as="geometry"/>
                </mxCell>
                <mxCell id="edbFJAN6jYuSnjtKabjJ-3" value="&lt;span style=&quot;color: rgb(0, 0, 0); font-family: Helvetica; font-size: 25px; font-style: normal; font-variant-ligatures: normal; font-variant-caps: normal; font-weight: 400; letter-spacing: normal; orphans: 2; text-align: left; text-indent: 0px; text-transform: none; widows: 2; word-spacing: 0px; -webkit-text-stroke-width: 0px; background-color: rgb(248, 249, 250); text-decoration-thickness: initial; text-decoration-style: initial; text-decoration-color: initial; float: none; display: inline !important;&quot;&gt;CLIENTE&lt;/span&gt;" style="rounded=1;whiteSpace=wrap;html=1;dashed=1;labelBackgroundColor=#DAE8FC;fontSize=25;" parent="1" vertex="1">
                    <mxGeometry x="18.25" y="80" width="207" height="40" as="geometry"/>
                </mxCell>
                <mxCell id="edbFJAN6jYuSnjtKabjJ-4" value="&lt;font style=&quot;font-size: 15px&quot; color=&quot;#000000&quot;&gt;&lt;span&gt;[&lt;/span&gt;&lt;br&gt;&lt;/font&gt;&lt;div&gt;&lt;div style=&quot;font-size: 15px&quot;&gt;&lt;font style=&quot;font-size: 15px&quot; color=&quot;#000000&quot;&gt; {&lt;/font&gt;&lt;/div&gt;&lt;div style=&quot;font-size: 15px&quot;&gt;&lt;font style=&quot;font-size: 15px&quot; color=&quot;#000000&quot;&gt;&amp;nbsp; &amp;nbsp; &amp;nbsp; &amp;nbsp; id: 1&lt;/font&gt;&lt;/div&gt;&lt;div style=&quot;font-size: 15px&quot;&gt;&lt;font style=&quot;font-size: 15px&quot; color=&quot;#000000&quot;&gt;&amp;nbsp; &amp;nbsp; &amp;nbsp; &amp;nbsp; fullName: Heloisa E.P.V Dias&lt;/font&gt;&lt;/div&gt;&lt;div style=&quot;font-size: 15px&quot;&gt;&lt;font style=&quot;font-size: 15px&quot; color=&quot;#000000&quot;&gt;&amp;nbsp; &amp;nbsp; &amp;nbsp; &amp;nbsp; email: heloisa@gmail.com&lt;/font&gt;&lt;/div&gt;&lt;div style=&quot;font-size: 15px&quot;&gt;&lt;font style=&quot;font-size: 15px&quot; color=&quot;#000000&quot;&gt;&amp;nbsp; &amp;nbsp; &amp;nbsp; &amp;nbsp; senha: ********&lt;/font&gt;&lt;/div&gt;&lt;div style=&quot;font-size: 15px&quot;&gt;&lt;font style=&quot;font-size: 15px&quot; color=&quot;#000000&quot;&gt;&amp;nbsp; &amp;nbsp; &amp;nbsp; &amp;nbsp; role: proficional&lt;/font&gt;&lt;/div&gt;&lt;div style=&quot;font-size: 15px&quot;&gt;&lt;font style=&quot;font-size: 15px&quot; color=&quot;#000000&quot;&gt;  &amp;nbsp; &amp;nbsp; &amp;nbsp;endereço: {&lt;/font&gt;&lt;/div&gt;&lt;div style=&quot;font-size: 15px&quot;&gt;&lt;font style=&quot;font-size: 15px&quot; color=&quot;#000000&quot;&gt;&amp;nbsp; &amp;nbsp; &amp;nbsp; &amp;nbsp; &amp;nbsp; &amp;nbsp; &amp;nbsp;endereco: rua ....&lt;/font&gt;&lt;/div&gt;&lt;div style=&quot;font-size: 15px&quot;&gt;&lt;font style=&quot;font-size: 15px&quot; color=&quot;#000000&quot;&gt;  &amp;nbsp; &amp;nbsp; &amp;nbsp; numeru: 35&lt;/font&gt;&lt;/div&gt;&lt;div style=&quot;font-size: 15px&quot;&gt;&lt;font style=&quot;font-size: 15px&quot; color=&quot;#000000&quot;&gt;  &amp;nbsp; &amp;nbsp; &amp;nbsp; complemento: .....&lt;/font&gt;&lt;/div&gt;&lt;div style=&quot;font-size: 15px&quot;&gt;&lt;font style=&quot;font-size: 15px&quot; color=&quot;#000000&quot;&gt;&lt;span&gt;&#9;&lt;/span&gt;&amp;nbsp; &amp;nbsp; &amp;nbsp; &amp;nbsp; &amp;nbsp; &amp;nbsp; &amp;nbsp;cep: ...&lt;br&gt;&lt;/font&gt;&lt;/div&gt;&lt;div style=&quot;font-size: 15px&quot;&gt;&lt;font style=&quot;font-size: 15px&quot; color=&quot;#000000&quot;&gt;&amp;nbsp; &amp;nbsp; &amp;nbsp; &amp;nbsp; &amp;nbsp;}&lt;/font&gt;&lt;/div&gt;&lt;div&gt;&lt;font color=&quot;#000000&quot;&gt;&lt;p style=&quot;font-size: 15px&quot;&gt;&lt;span&gt;&lt;/span&gt;&amp;nbsp; &amp;nbsp; &amp;nbsp; &amp;nbsp; Especialidades: [&lt;span&gt;&#9;&lt;/span&gt;&amp;nbsp; &amp;nbsp; &amp;nbsp; &amp;nbsp; &amp;nbsp; &amp;nbsp; &amp;nbsp; &amp;nbsp; &amp;nbsp; &amp;nbsp; &amp;nbsp; &amp;nbsp; &amp;nbsp; &amp;nbsp; &amp;nbsp; &amp;nbsp;&lt;span style=&quot;font-size: 10px&quot;&gt;{especialidade: unha, preço: 00,00},&amp;nbsp; &amp;nbsp; &amp;nbsp; &amp;nbsp; &amp;nbsp; &amp;nbsp; &amp;nbsp; &amp;nbsp; &amp;nbsp; &amp;nbsp; &amp;nbsp; &amp;nbsp; &amp;nbsp; &amp;nbsp;&lt;/span&gt;&lt;span style=&quot;font-size: 10px&quot;&gt;{especialidade: unha, preço: 00,00},&amp;nbsp; &amp;nbsp; &amp;nbsp; &amp;nbsp; &amp;nbsp; &amp;nbsp; &amp;nbsp; &amp;nbsp; &amp;nbsp; &amp;nbsp; &amp;nbsp; &amp;nbsp; &amp;nbsp; &amp;nbsp;&lt;/span&gt;&lt;span style=&quot;font-size: 10px&quot;&gt;{especialidade: unha, preço: 00,00},&amp;nbsp; &amp;nbsp; &amp;nbsp; &amp;nbsp; &amp;nbsp; &amp;nbsp; &amp;nbsp; &amp;nbsp; &amp;nbsp; &amp;nbsp; &amp;nbsp; &amp;nbsp; &amp;nbsp; &amp;nbsp;&amp;nbsp;&lt;/span&gt;&lt;span style=&quot;font-size: 10px&quot;&gt;{especialidade: unha, preço: 00,00},&amp;nbsp; &amp;nbsp; &amp;nbsp; &amp;nbsp; &amp;nbsp; &amp;nbsp; &amp;nbsp; &amp;nbsp; &amp;nbsp; &amp;nbsp; &amp;nbsp; &lt;/span&gt;&lt;span&gt;&amp;nbsp;],&lt;/span&gt;&lt;/p&gt;&lt;p style=&quot;font-size: 15px&quot;&gt;&amp;nbsp; &amp;nbsp; &amp;nbsp; &amp;nbsp;horarios: [&amp;nbsp;&lt;span&gt;],&lt;/span&gt;&lt;/p&gt;&lt;p style=&quot;font-size: 15px&quot;&gt;&amp;nbsp; &amp;nbsp; &amp;nbsp; &amp;nbsp; clientes: [ ],&lt;/p&gt;&lt;/font&gt;&lt;/div&gt;&lt;div style=&quot;font-size: 15px&quot;&gt;&lt;font style=&quot;font-size: 15px&quot; color=&quot;#000000&quot;&gt;&amp;nbsp; &amp;nbsp;},&lt;/font&gt;&lt;/div&gt;&lt;div style=&quot;font-size: 15px&quot;&gt;&lt;font style=&quot;font-size: 15px&quot; color=&quot;#000000&quot;&gt;]&lt;/font&gt;&lt;/div&gt;&lt;/div&gt;" style="text;whiteSpace=wrap;html=1;fontSize=25;fillColor=#f8cecc;strokeColor=#b85450;" parent="1" vertex="1">
                    <mxGeometry x="285.25" y="130" width="236.5" height="550" as="geometry"/>
                </mxCell>
                <mxCell id="edbFJAN6jYuSnjtKabjJ-5" value="&lt;div style=&quot;text-align: left&quot;&gt;&lt;span style=&quot;background-color: rgb(248 , 249 , 250)&quot;&gt;&lt;font color=&quot;#000000&quot;&gt;PROFISSIONAL&lt;/font&gt;&lt;/span&gt;&lt;/div&gt;" style="rounded=1;whiteSpace=wrap;html=1;dashed=1;labelBackgroundColor=#DAE8FC;fontSize=25;" parent="1" vertex="1">
                    <mxGeometry x="300" y="80" width="207" height="40" as="geometry"/>
                </mxCell>
                <mxCell id="edbFJAN6jYuSnjtKabjJ-6" value="&lt;font style=&quot;font-size: 15px&quot; color=&quot;#000000&quot;&gt;&lt;span&gt;[&lt;/span&gt;&lt;br&gt;&lt;/font&gt;&lt;div style=&quot;font-size: 15px&quot;&gt;&lt;div&gt;&lt;font style=&quot;font-size: 15px&quot; color=&quot;#000000&quot;&gt; {&lt;/font&gt;&lt;/div&gt;&lt;div&gt;&lt;font style=&quot;font-size: 15px&quot; color=&quot;#000000&quot;&gt;&amp;nbsp; &amp;nbsp; &amp;nbsp; &amp;nbsp; fullName: Julia elena mariana&lt;/font&gt;&lt;/div&gt;&lt;div&gt;&lt;font style=&quot;font-size: 15px&quot; color=&quot;#000000&quot;&gt;&amp;nbsp; &amp;nbsp; &amp;nbsp; &amp;nbsp; email: julia@gmail.com&lt;/font&gt;&lt;/div&gt;&lt;div&gt;&lt;font style=&quot;font-size: 15px&quot; color=&quot;#000000&quot;&gt;&amp;nbsp; &amp;nbsp; &amp;nbsp; &amp;nbsp; senha: ********&lt;/font&gt;&lt;/div&gt;&lt;div&gt;&lt;font style=&quot;font-size: 15px&quot; color=&quot;#000000&quot;&gt;   role: admim&lt;/font&gt;&lt;/div&gt;&lt;div&gt;&lt;font color=&quot;#000000&quot;&gt;&lt;font style=&quot;font-size: 15px&quot;&gt;  &amp;nbsp; &amp;nbsp; &amp;nbsp;&lt;/font&gt;&lt;span&gt;endereço: {&lt;/span&gt;&lt;/font&gt;&lt;/div&gt;&lt;div&gt;&lt;font color=&quot;#000000&quot;&gt;&amp;nbsp; &amp;nbsp; &amp;nbsp; &amp;nbsp; &amp;nbsp; &amp;nbsp; &amp;nbsp;endereco: rua ....&lt;/font&gt;&lt;/div&gt;&lt;div&gt;&lt;font color=&quot;#000000&quot;&gt;  &amp;nbsp; &amp;nbsp; &amp;nbsp; numeru: 35&lt;/font&gt;&lt;/div&gt;&lt;div&gt;&lt;font color=&quot;#000000&quot;&gt;  &amp;nbsp; &amp;nbsp; &amp;nbsp; complemento: .....&lt;/font&gt;&lt;/div&gt;&lt;div&gt;&lt;font color=&quot;#000000&quot;&gt;&amp;nbsp; &amp;nbsp; &amp;nbsp; &amp;nbsp; &amp;nbsp; &amp;nbsp; &amp;nbsp;cep: ...&lt;br&gt;&lt;/font&gt;&lt;/div&gt;&lt;div&gt;&lt;font color=&quot;#000000&quot;&gt;&amp;nbsp; &amp;nbsp; &amp;nbsp; &amp;nbsp; &amp;nbsp;}&lt;/font&gt;&lt;/div&gt;&lt;div&gt;&lt;font style=&quot;font-size: 15px&quot; color=&quot;#000000&quot;&gt;&amp;nbsp; &amp;nbsp;},&amp;nbsp;&lt;/font&gt;&lt;/div&gt;&lt;div&gt;&lt;font style=&quot;font-size: 15px&quot; color=&quot;#000000&quot;&gt;]&lt;/font&gt;&lt;/div&gt;&lt;/div&gt;" style="text;whiteSpace=wrap;html=1;fontSize=25;fillColor=#f8cecc;strokeColor=#b85450;" parent="1" vertex="1">
                    <mxGeometry x="580" y="130" width="236.5" height="550" as="geometry"/>
                </mxCell>
                <mxCell id="edbFJAN6jYuSnjtKabjJ-7" value="&lt;span style=&quot;color: rgb(0, 0, 0); font-family: Helvetica; font-size: 25px; font-style: normal; font-variant-ligatures: normal; font-variant-caps: normal; font-weight: 400; letter-spacing: normal; orphans: 2; text-align: left; text-indent: 0px; text-transform: none; widows: 2; word-spacing: 0px; -webkit-text-stroke-width: 0px; background-color: rgb(248, 249, 250); text-decoration-thickness: initial; text-decoration-style: initial; text-decoration-color: initial; float: none; display: inline !important;&quot;&gt;CLIENTE&lt;/span&gt;" style="rounded=1;whiteSpace=wrap;html=1;dashed=1;labelBackgroundColor=#DAE8FC;fontSize=25;" parent="1" vertex="1">
                    <mxGeometry x="594.75" y="80" width="207" height="40" as="geometry"/>
                </mxCell>
            </root>
        </mxGraphModel>
    </diagram>
    <diagram name="Page-4" id="LhPDSG8pUlaXJMUj20BY">
        <mxGraphModel dx="877" dy="605" grid="1" gridSize="10" guides="1" tooltips="1" connect="1" arrows="1" fold="1" page="1" pageScale="1" pageWidth="827" pageHeight="1169" math="0" shadow="0">
            <root>
                <mxCell id="0"/>
                <mxCell id="1" parent="0"/>
                <mxCell id="kW_-IeDoj9MIeHXcwhkC-5" value="biblioteca" style="swimlane;fontStyle=0;childLayout=stackLayout;horizontal=1;startSize=26;horizontalStack=0;resizeParent=1;resizeParentMax=0;resizeLast=0;collapsible=1;marginBottom=0;align=center;fontSize=14;dashed=1;labelBackgroundColor=#DAE8FC;fontColor=#000000;strokeColor=#000000;fillColor=#DAE8FC;labelBorderColor=#FFFFFF;" parent="1" vertex="1">
                    <mxGeometry x="30" y="40" width="370" height="206" as="geometry"/>
                </mxCell>
                <mxCell id="kW_-IeDoj9MIeHXcwhkC-6" value="moment.js -&gt; trabalha com datas" style="text;strokeColor=none;fillColor=none;spacingLeft=4;spacingRight=4;overflow=hidden;rotatable=0;points=[[0,0.5],[1,0.5]];portConstraint=eastwest;fontSize=12;dashed=1;labelBackgroundColor=#DAE8FC;fontColor=#000000;" parent="kW_-IeDoj9MIeHXcwhkC-5" vertex="1">
                    <mxGeometry y="26" width="370" height="30" as="geometry"/>
                </mxCell>
                <mxCell id="kW_-IeDoj9MIeHXcwhkC-7" value="bootstrap e jquery" style="text;strokeColor=none;fillColor=none;spacingLeft=4;spacingRight=4;overflow=hidden;rotatable=0;points=[[0,0.5],[1,0.5]];portConstraint=eastwest;fontSize=12;dashed=1;labelBackgroundColor=#DAE8FC;fontColor=#000000;" parent="kW_-IeDoj9MIeHXcwhkC-5" vertex="1">
                    <mxGeometry y="56" width="370" height="30" as="geometry"/>
                </mxCell>
                <mxCell id="kW_-IeDoj9MIeHXcwhkC-8" value="fontawesome.com -&gt; icones prontos, atuam como textos" style="text;strokeColor=none;fillColor=none;spacingLeft=4;spacingRight=4;overflow=hidden;rotatable=0;points=[[0,0.5],[1,0.5]];portConstraint=eastwest;fontSize=12;dashed=1;labelBackgroundColor=#DAE8FC;fontColor=#000000;" parent="kW_-IeDoj9MIeHXcwhkC-5" vertex="1">
                    <mxGeometry y="86" width="370" height="30" as="geometry"/>
                </mxCell>
                <mxCell id="kW_-IeDoj9MIeHXcwhkC-9" value="framework de data: dataPickerx e pickaday" style="text;strokeColor=none;fillColor=none;spacingLeft=4;spacingRight=4;overflow=hidden;rotatable=0;points=[[0,0.5],[1,0.5]];portConstraint=eastwest;fontSize=12;dashed=1;labelBackgroundColor=#DAE8FC;fontColor=#000000;" parent="kW_-IeDoj9MIeHXcwhkC-5" vertex="1">
                    <mxGeometry y="116" width="370" height="30" as="geometry"/>
                </mxCell>
                <mxCell id="kW_-IeDoj9MIeHXcwhkC-10" value="just-validate e popup-validation -&gt; validação de formulario" style="text;strokeColor=none;fillColor=none;spacingLeft=4;spacingRight=4;overflow=hidden;rotatable=0;points=[[0,0.5],[1,0.5]];portConstraint=eastwest;fontSize=12;dashed=1;labelBackgroundColor=#DAE8FC;fontColor=#000000;" parent="kW_-IeDoj9MIeHXcwhkC-5" vertex="1">
                    <mxGeometry y="146" width="370" height="30" as="geometry"/>
                </mxCell>
                <mxCell id="kW_-IeDoj9MIeHXcwhkC-11" value="react-hook-form -&gt; dica do leandro para validar formulario no react" style="text;strokeColor=none;fillColor=none;spacingLeft=4;spacingRight=4;overflow=hidden;rotatable=0;points=[[0,0.5],[1,0.5]];portConstraint=eastwest;fontSize=12;dashed=1;labelBackgroundColor=#DAE8FC;fontColor=#000000;" parent="kW_-IeDoj9MIeHXcwhkC-5" vertex="1">
                    <mxGeometry y="176" width="370" height="30" as="geometry"/>
                </mxCell>
                <mxCell id="kW_-IeDoj9MIeHXcwhkC-12" value="Soluções futuras" style="swimlane;fontStyle=0;childLayout=stackLayout;horizontal=1;startSize=26;horizontalStack=0;resizeParent=1;resizeParentMax=0;resizeLast=0;collapsible=1;marginBottom=0;align=center;fontSize=14;dashed=1;labelBackgroundColor=#DAE8FC;fontColor=#000000;strokeColor=#000000;fillColor=#DAE8FC;" parent="1" vertex="1">
                    <mxGeometry x="440" y="40" width="530" height="446" as="geometry"/>
                </mxCell>
                <mxCell id="kW_-IeDoj9MIeHXcwhkC-13" value="Salvar informaçoes no local storage" style="text;strokeColor=none;fillColor=none;spacingLeft=4;spacingRight=4;overflow=hidden;rotatable=0;points=[[0,0.5],[1,0.5]];portConstraint=eastwest;fontSize=12;dashed=1;labelBackgroundColor=#DAE8FC;fontColor=#000000;" parent="kW_-IeDoj9MIeHXcwhkC-12" vertex="1">
                    <mxGeometry y="26" width="530" height="30" as="geometry"/>
                </mxCell>
                <mxCell id="kW_-IeDoj9MIeHXcwhkC-14" value="forrma de pagamento" style="text;strokeColor=none;fillColor=none;spacingLeft=4;spacingRight=4;overflow=hidden;rotatable=0;points=[[0,0.5],[1,0.5]];portConstraint=eastwest;fontSize=12;dashed=1;labelBackgroundColor=#DAE8FC;fontColor=#000000;" parent="kW_-IeDoj9MIeHXcwhkC-12" vertex="1">
                    <mxGeometry y="56" width="530" height="30" as="geometry"/>
                </mxCell>
                <mxCell id="kW_-IeDoj9MIeHXcwhkC-15" value="Somar quantidade de ganho no mes" style="text;strokeColor=none;fillColor=none;spacingLeft=4;spacingRight=4;overflow=hidden;rotatable=0;points=[[0,0.5],[1,0.5]];portConstraint=eastwest;fontSize=12;dashed=1;labelBackgroundColor=#DAE8FC;fontColor=#000000;" parent="kW_-IeDoj9MIeHXcwhkC-12" vertex="1">
                    <mxGeometry y="86" width="530" height="30" as="geometry"/>
                </mxCell>
                <mxCell id="kW_-IeDoj9MIeHXcwhkC-16" value="Previsão do mes para o proficional" style="text;strokeColor=none;fillColor=none;spacingLeft=4;spacingRight=4;overflow=hidden;rotatable=0;points=[[0,0.5],[1,0.5]];portConstraint=eastwest;fontSize=12;dashed=1;labelBackgroundColor=#DAE8FC;fontColor=#000000;" parent="kW_-IeDoj9MIeHXcwhkC-12" vertex="1">
                    <mxGeometry y="116" width="530" height="30" as="geometry"/>
                </mxCell>
                <mxCell id="kW_-IeDoj9MIeHXcwhkC-17" value="Recupera senha" style="text;strokeColor=none;fillColor=none;spacingLeft=4;spacingRight=4;overflow=hidden;rotatable=0;points=[[0,0.5],[1,0.5]];portConstraint=eastwest;fontSize=12;dashed=1;labelBackgroundColor=#DAE8FC;fontColor=#000000;" parent="kW_-IeDoj9MIeHXcwhkC-12" vertex="1">
                    <mxGeometry y="146" width="530" height="30" as="geometry"/>
                </mxCell>
                <mxCell id="kW_-IeDoj9MIeHXcwhkC-18" value="se a pessoa desmarca depois de 24h, incrementa um valor na proxima unha; posso usar o redux" style="text;strokeColor=none;fillColor=none;spacingLeft=4;spacingRight=4;overflow=hidden;rotatable=0;points=[[0,0.5],[1,0.5]];portConstraint=eastwest;fontSize=12;dashed=1;labelBackgroundColor=#DAE8FC;fontColor=#000000;" parent="kW_-IeDoj9MIeHXcwhkC-12" vertex="1">
                    <mxGeometry y="176" width="530" height="30" as="geometry"/>
                </mxCell>
                <mxCell id="kW_-IeDoj9MIeHXcwhkC-19" value="colocar agenda do proficional" style="text;strokeColor=none;fillColor=none;spacingLeft=4;spacingRight=4;overflow=hidden;rotatable=0;points=[[0,0.5],[1,0.5]];portConstraint=eastwest;fontSize=12;dashed=1;labelBackgroundColor=#DAE8FC;fontColor=#000000;" parent="kW_-IeDoj9MIeHXcwhkC-12" vertex="1">
                    <mxGeometry y="206" width="530" height="30" as="geometry"/>
                </mxCell>
                <mxCell id="kW_-IeDoj9MIeHXcwhkC-20" value="sobre o proficional" style="text;strokeColor=none;fillColor=none;spacingLeft=4;spacingRight=4;overflow=hidden;rotatable=0;points=[[0,0.5],[1,0.5]];portConstraint=eastwest;fontSize=12;dashed=1;labelBackgroundColor=#DAE8FC;fontColor=#000000;" parent="kW_-IeDoj9MIeHXcwhkC-12" vertex="1">
                    <mxGeometry y="236" width="530" height="30" as="geometry"/>
                </mxCell>
                <mxCell id="kW_-IeDoj9MIeHXcwhkC-21" value="trabalhos ja realizados. ex: imaens, videos" style="text;strokeColor=none;fillColor=none;spacingLeft=4;spacingRight=4;overflow=hidden;rotatable=0;points=[[0,0.5],[1,0.5]];portConstraint=eastwest;fontSize=12;dashed=1;labelBackgroundColor=#DAE8FC;fontColor=#000000;" parent="kW_-IeDoj9MIeHXcwhkC-12" vertex="1">
                    <mxGeometry y="266" width="530" height="30" as="geometry"/>
                </mxCell>
                <mxCell id="kW_-IeDoj9MIeHXcwhkC-22" value="disponibilizar o contato para cliente --&gt; wpp e email" style="text;strokeColor=none;fillColor=none;spacingLeft=4;spacingRight=4;overflow=hidden;rotatable=0;points=[[0,0.5],[1,0.5]];portConstraint=eastwest;fontSize=12;dashed=1;labelBackgroundColor=#DAE8FC;fontColor=#000000;" parent="kW_-IeDoj9MIeHXcwhkC-12" vertex="1">
                    <mxGeometry y="296" width="530" height="30" as="geometry"/>
                </mxCell>
                <mxCell id="kW_-IeDoj9MIeHXcwhkC-23" value="criptografar senha" style="text;strokeColor=none;fillColor=none;spacingLeft=4;spacingRight=4;overflow=hidden;rotatable=0;points=[[0,0.5],[1,0.5]];portConstraint=eastwest;fontSize=12;dashed=1;labelBackgroundColor=#DAE8FC;fontColor=#000000;" parent="kW_-IeDoj9MIeHXcwhkC-12" vertex="1">
                    <mxGeometry y="326" width="530" height="30" as="geometry"/>
                </mxCell>
                <mxCell id="kW_-IeDoj9MIeHXcwhkC-28" style="edgeStyle=orthogonalEdgeStyle;rounded=0;orthogonalLoop=1;jettySize=auto;html=1;fontSize=10;fontColor=#000000;strokeColor=#82B366;" parent="kW_-IeDoj9MIeHXcwhkC-12" source="kW_-IeDoj9MIeHXcwhkC-24" target="kW_-IeDoj9MIeHXcwhkC-25" edge="1">
                    <mxGeometry relative="1" as="geometry"/>
                </mxCell>
                <mxCell id="kW_-IeDoj9MIeHXcwhkC-24" value="lista de espera, no caso de se ela não tiver mais vaga e surgir naquele dia" style="text;strokeColor=none;fillColor=none;spacingLeft=4;spacingRight=4;overflow=hidden;rotatable=0;points=[[0,0.5],[1,0.5]];portConstraint=eastwest;fontSize=12;dashed=1;labelBackgroundColor=#DAE8FC;fontColor=#000000;" parent="kW_-IeDoj9MIeHXcwhkC-12" vertex="1">
                    <mxGeometry y="356" width="530" height="30" as="geometry"/>
                </mxCell>
                <mxCell id="kW_-IeDoj9MIeHXcwhkC-25" value="adicionar mais endereços para usuarios e proficionais" style="text;strokeColor=none;fillColor=none;spacingLeft=4;spacingRight=4;overflow=hidden;rotatable=0;points=[[0,0.5],[1,0.5]];portConstraint=eastwest;fontSize=12;dashed=1;labelBackgroundColor=#DAE8FC;fontColor=#000000;" parent="kW_-IeDoj9MIeHXcwhkC-12" vertex="1">
                    <mxGeometry y="386" width="530" height="30" as="geometry"/>
                </mxCell>
                <mxCell id="kW_-IeDoj9MIeHXcwhkC-26" value="total de unhas feitas no mes e no ano, na pagina de horarios marcados de proficional" style="text;strokeColor=none;fillColor=none;spacingLeft=4;spacingRight=4;overflow=hidden;rotatable=0;points=[[0,0.5],[1,0.5]];portConstraint=eastwest;fontSize=12;dashed=1;labelBackgroundColor=#DAE8FC;fontColor=#000000;" parent="kW_-IeDoj9MIeHXcwhkC-12" vertex="1">
                    <mxGeometry y="416" width="530" height="30" as="geometry"/>
                </mxCell>
            </root>
        </mxGraphModel>
    </diagram>
</mxfile>
